solid 0
facet normal 0.0016 0 -0
outer loop
vertex 8.01 4.81 0
vertex 8.01 4.81 0.08
vertex 8.01 4.79 0.08
endloop
endfacet 
facet normal 0.0016 0 0
outer loop
vertex 8.01 4.81 0
vertex 8.01 4.79 0.08
vertex 8.01 4.79 0
endloop
endfacet 
facet normal -0.0016 0 -0
outer loop
vertex 8.01 4.81 0.08
vertex 8.01 4.81 0
vertex 8.01 4.79 0
endloop
endfacet 
facet normal -0.0016 -0 0
outer loop
vertex 8.01 4.81 0.08
vertex 8.01 4.79 0
vertex 8.01 4.79 0.08
endloop
endfacet 
facet normal 0 0 0.0541999
outer loop
vertex -0.01 3.61 0
vertex -0.01 3.59 0
vertex 2.7 3.59 0
endloop
endfacet 
facet normal 0 0 0.1604
outer loop
vertex -0.01 4.789 0
vertex 8.01 4.79 0
vertex 8.01 4.81 0
endloop
endfacet 
facet normal 0 0 0.0569098
outer loop
vertex -0.01 4.789 0
vertex 8.01 4.81 0
vertex 5.3 4.81 0
endloop
endfacet 
facet normal 0 0 6.2658
outer loop
vertex -0.01 4.789 0
vertex 5.3 4.81 0
vertex 5.3 5.99 0
endloop
endfacet 
facet normal 0 0 0.145498
outer loop
vertex -0.308 4.749 0
vertex -0.01 4.789 0
vertex 5.3 5.99 0
endloop
endfacet 
facet normal 0 0 0.16311
outer loop
vertex 8.01 3.611 0
vertex -0.01 3.61 0
vertex 2.7 3.59 0
endloop
endfacet 
facet normal 0 0 6.26049
outer loop
vertex 8.01 3.611 0
vertex 2.7 3.59 0
vertex 2.7 2.411 0
endloop
endfacet 
facet normal 0 0 0.145199
outer loop
vertex 8.308 3.651 0
vertex 8.01 3.611 0
vertex 2.7 2.411 0
endloop
endfacet 
facet normal 0 0 -3.3604
outer loop
vertex 8.308 3.651 0
vertex 2.7 2.411 0
vertex -0.01 2.411 0
endloop
endfacet 
facet normal 0 0 -0.702239
outer loop
vertex 8.308 3.651 0
vertex -0.01 2.411 0
vertex -0.308 2.451 0
endloop
endfacet 
facet normal 0 0 -1.3697
outer loop
vertex 8.308 3.651 0
vertex -0.308 2.451 0
vertex -0.595 2.57 0
endloop
endfacet 
facet normal 0 0 -1.94859
outer loop
vertex 8.308 3.651 0
vertex -0.595 2.57 0
vertex -0.841 2.759 0
endloop
endfacet 
facet normal 0 0 -2.41924
outer loop
vertex 8.308 3.651 0
vertex -0.841 2.759 0
vertex -1.03 3.005 0
endloop
endfacet 
facet normal 0 0 -2.75688
outer loop
vertex 8.308 3.651 0
vertex -1.03 3.005 0
vertex -1.149 3.292 0
endloop
endfacet 
facet normal 0 0 -2.92747
outer loop
vertex 8.308 3.651 0
vertex -1.149 3.292 0
vertex -1.19 3.6 0
endloop
endfacet 
facet normal -0 0 -2.92329
outer loop
vertex 8.308 3.651 0
vertex -1.19 3.6 0
vertex -1.149 3.908 0
endloop
endfacet 
facet normal 0 0 -2.74474
outer loop
vertex 8.308 3.651 0
vertex -1.149 3.908 0
vertex -1.03 4.195 0
endloop
endfacet 
facet normal 0 0 -2.39996
outer loop
vertex 8.308 3.651 0
vertex -1.03 4.195 0
vertex -0.841 4.441 0
endloop
endfacet 
facet normal 0 0 -1.9235
outer loop
vertex 8.308 3.651 0
vertex -0.841 4.441 0
vertex -0.595 4.63 0
endloop
endfacet 
facet normal 0 0 -1.34043
outer loop
vertex 8.308 3.651 0
vertex -0.595 4.63 0
vertex -0.308 4.749 0
endloop
endfacet 
facet normal 0 0 -16.85
outer loop
vertex 8.308 3.651 0
vertex -0.308 4.749 0
vertex 5.3 5.99 0
endloop
endfacet 
facet normal 0 0 -6.33568
outer loop
vertex 8.308 3.651 0
vertex 5.3 5.99 0
vertex 8.01 5.989 0
endloop
endfacet 
facet normal 0 0 -0.684803
outer loop
vertex 8.308 3.651 0
vertex 8.01 5.989 0
vertex 8.308 5.949 0
endloop
endfacet 
facet normal 0 0 -0.659527
outer loop
vertex 8.308 3.651 0
vertex 8.308 5.949 0
vertex 8.595 5.83 0
endloop
endfacet 
facet normal 0 0 -0.590276
outer loop
vertex 8.308 3.651 0
vertex 8.595 5.83 0
vertex 8.841 5.641 0
endloop
endfacet 
facet normal 0 0 -0.507228
outer loop
vertex 8.308 3.651 0
vertex 8.841 5.641 0
vertex 9.03 5.395 0
endloop
endfacet 
facet normal 0 0 -0.414751
outer loop
vertex 8.308 3.651 0
vertex 9.03 5.395 0
vertex 9.149 5.108 0
endloop
endfacet 
facet normal 0 0 -0.318764
outer loop
vertex 8.308 3.651 0
vertex 9.149 5.108 0
vertex 9.19 4.8 0
endloop
endfacet 
facet normal 0 0 -0.224548
outer loop
vertex 8.308 3.651 0
vertex 9.19 4.8 0
vertex 9.149 4.492 0
endloop
endfacet 
facet normal 0 0 -0.141288
outer loop
vertex 8.308 3.651 0
vertex 9.149 4.492 0
vertex 9.03 4.205 0
endloop
endfacet 
facet normal 0 0 -0.0729058
outer loop
vertex 8.308 3.651 0
vertex 9.03 4.205 0
vertex 8.841 3.959 0
endloop
endfacet 
facet normal 0 0 -0.0249692
outer loop
vertex 8.308 3.651 0
vertex 8.841 3.959 0
vertex 8.595 3.77 0
endloop
endfacet 
facet normal 0 0 0.0027098
outer loop
vertex 2.7 3.59 0
vertex 5.3 3.589 0
vertex 8.01 3.589 0
endloop
endfacet 
facet normal -7.99942e-005 -0.4248 0
outer loop
vertex 2.7 3.59 0
vertex 8.01 3.589 0
vertex 8.01 3.589 0.08
endloop
endfacet 
facet normal -7.99942e-005 -0.6416 -0.0027098
outer loop
vertex 2.7 3.59 0
vertex 8.01 3.589 0.08
vertex -0.01 3.59 0.08
endloop
endfacet 
facet normal 0 -0.2168 0
outer loop
vertex 2.7 3.59 0
vertex -0.01 3.59 0.08
vertex -0.01 3.59 0
endloop
endfacet 
facet normal 0 0 0.0027098
outer loop
vertex 5.3 3.589 0
vertex 2.7 3.59 0
vertex -0.01 3.59 0
endloop
endfacet 
facet normal 0 0 -0.0027098
outer loop
vertex 8.01 3.589 0
vertex 5.3 3.589 0
vertex -0.01 3.59 0
endloop
endfacet 
facet normal 7.99942e-005 0.6416 0
outer loop
vertex 8.01 3.589 0
vertex -0.01 3.59 0
vertex -0.01 3.59 0.08
endloop
endfacet 
facet normal 7.99942e-005 0.6416 -0
outer loop
vertex 8.01 3.589 0
vertex -0.01 3.59 0.08
vertex 8.01 3.589 0.08
endloop
endfacet 
facet normal 0 0 0.320502
outer loop
vertex -0.01 3.61 0
vertex 8.01 3.611 0
vertex 8.308 3.651 0
endloop
endfacet 
facet normal 0 0 0.978075
outer loop
vertex -0.01 3.61 0
vertex 8.308 3.651 0
vertex 8.595 3.77 0
endloop
endfacet 
facet normal 0 0 1.58699
outer loop
vertex -0.01 3.61 0
vertex 8.595 3.77 0
vertex 8.841 3.959 0
endloop
endfacet 
facet normal 0 0 2.11138
outer loop
vertex -0.01 3.61 0
vertex 8.841 3.959 0
vertex 9.03 4.205 0
endloop
endfacet 
facet normal 0 0 2.52368
outer loop
vertex -0.01 3.61 0
vertex 9.03 4.205 0
vertex 9.149 4.492 0
endloop
endfacet 
facet normal 0 0 2.78481
outer loop
vertex -0.01 3.61 0
vertex 9.149 4.492 0
vertex 9.19 4.8 0
endloop
endfacet 
facet normal 0 0 2.88239
outer loop
vertex -0.01 3.61 0
vertex 9.19 4.8 0
vertex 9.149 5.108 0
endloop
endfacet 
facet normal 0 0 2.8069
outer loop
vertex -0.01 3.61 0
vertex 9.149 5.108 0
vertex 9.03 5.395 0
endloop
endfacet 
facet normal 0 0 2.5612
outer loop
vertex -0.01 3.61 0
vertex 9.03 5.395 0
vertex 8.841 5.641 0
endloop
endfacet 
facet normal 0 0 2.17246
outer loop
vertex -0.01 3.61 0
vertex 8.841 5.641 0
vertex 8.595 5.83 0
endloop
endfacet 
facet normal 0 0 1.66114
outer loop
vertex -0.01 3.61 0
vertex 8.595 5.83 0
vertex 8.308 5.949 0
endloop
endfacet 
facet normal 0 0 1.02974
outer loop
vertex -0.01 3.61 0
vertex 8.308 5.949 0
vertex 8.01 5.989 0
endloop
endfacet 
facet normal 0 0 6.45511
outer loop
vertex -0.01 3.61 0
vertex 8.01 5.989 0
vertex 5.3 5.99 0
endloop
endfacet 
facet normal 0 0 3.1978
outer loop
vertex 5.3 5.99 0
vertex 5.3 4.81 0
vertex 8.01 4.81 0
endloop
endfacet 
facet normal 0 0 0.320502
outer loop
vertex 8.01 4.79 0
vertex -0.01 4.789 0
vertex -0.308 4.749 0
endloop
endfacet 
facet normal 0 0 0.978075
outer loop
vertex 8.01 4.79 0
vertex -0.308 4.749 0
vertex -0.595 4.63 0
endloop
endfacet 
facet normal 0 0 1.58699
outer loop
vertex 8.01 4.79 0
vertex -0.595 4.63 0
vertex -0.841 4.441 0
endloop
endfacet 
facet normal 0 0 2.11138
outer loop
vertex 8.01 4.79 0
vertex -0.841 4.441 0
vertex -1.03 4.195 0
endloop
endfacet 
facet normal 0 0 2.52368
outer loop
vertex 8.01 4.79 0
vertex -1.03 4.195 0
vertex -1.149 3.908 0
endloop
endfacet 
facet normal 0 0 2.78481
outer loop
vertex 8.01 4.79 0
vertex -1.149 3.908 0
vertex -1.19 3.6 0
endloop
endfacet 
facet normal 0 0 2.88239
outer loop
vertex 8.01 4.79 0
vertex -1.19 3.6 0
vertex -1.149 3.292 0
endloop
endfacet 
facet normal 0 0 2.8069
outer loop
vertex 8.01 4.79 0
vertex -1.149 3.292 0
vertex -1.03 3.005 0
endloop
endfacet 
facet normal 0 0 2.56121
outer loop
vertex 8.01 4.79 0
vertex -1.03 3.005 0
vertex -0.841 2.759 0
endloop
endfacet 
facet normal 0 0 2.17246
outer loop
vertex 8.01 4.79 0
vertex -0.841 2.759 0
vertex -0.595 2.57 0
endloop
endfacet 
facet normal 0 0 1.66114
outer loop
vertex 8.01 4.79 0
vertex -0.595 2.57 0
vertex -0.308 2.451 0
endloop
endfacet 
facet normal 0 0 1.02974
outer loop
vertex 8.01 4.79 0
vertex -0.308 2.451 0
vertex -0.01 2.411 0
endloop
endfacet 
facet normal 0 0 6.44709
outer loop
vertex 8.01 4.79 0
vertex -0.01 2.411 0
vertex 2.7 2.411 0
endloop
endfacet 
facet normal 0 -0 3.19509
outer loop
vertex 2.7 2.411 0
vertex 2.7 3.59 0
vertex -0.01 3.59 0
endloop
endfacet 
facet normal 0 0 -0.1062
outer loop
vertex -0.01 3.59 0
vertex -0.01 3.61 0
vertex 5.3 5.99 0
endloop
endfacet 
facet normal 0 0 -12.7698
outer loop
vertex -0.01 3.59 0
vertex 5.3 5.99 0
vertex 8.01 4.81 0
endloop
endfacet 
facet normal 0 0 -0.1604
outer loop
vertex -0.01 3.59 0
vertex 8.01 4.81 0
vertex 8.01 4.79 0
endloop
endfacet 
facet normal 0 0 -12.7076
outer loop
vertex -0.01 3.59 0
vertex 8.01 4.79 0
vertex 2.7 2.411 0
endloop
endfacet 
facet normal -8.00133e-005 0.6416 0
outer loop
vertex 8.01 3.611 0.08
vertex 8.01 3.611 0
vertex -0.01 3.61 0
endloop
endfacet 
facet normal -8.00133e-005 0.6416 0
outer loop
vertex 8.01 3.611 0.08
vertex -0.01 3.61 0
vertex -0.01 3.61 0.08
endloop
endfacet 
facet normal 8.00133e-005 -0.6416 0
outer loop
vertex 8.01 3.611 0
vertex 8.01 3.611 0.08
vertex -0.01 3.61 0.08
endloop
endfacet 
facet normal 8.00133e-005 -0.6416 0
outer loop
vertex 8.01 3.611 0
vertex -0.01 3.61 0.08
vertex -0.01 3.61 0
endloop
endfacet 
facet normal -0 0 0.176441
outer loop
vertex -0.01 3.61 0.08
vertex 8.01 3.589 0.08
vertex 8.01 3.611 0.08
endloop
endfacet 
facet normal 0 0 0.1604
outer loop
vertex 8.01 3.589 0.08
vertex -0.01 3.61 0.08
vertex -0.01 3.59 0.08
endloop
endfacet 
facet normal 0 0 -0.1604
outer loop
vertex -0.01 3.59 0.08
vertex -0.01 3.61 0.08
vertex 8.01 3.589 0.08
endloop
endfacet 
facet normal -0.0016 0 0
outer loop
vertex -0.01 3.59 0
vertex -0.01 3.59 0.08
vertex -0.01 3.61 0.08
endloop
endfacet 
facet normal -0.0016 0 0
outer loop
vertex -0.01 3.59 0
vertex -0.01 3.61 0.08
vertex -0.01 3.61 0
endloop
endfacet 
facet normal 0.0016 0 0
outer loop
vertex -0.01 3.59 0.08
vertex -0.01 3.59 0
vertex -0.01 3.61 0
endloop
endfacet 
facet normal 0.0016 -0 0
outer loop
vertex -0.01 3.59 0.08
vertex -0.01 3.61 0
vertex -0.01 3.61 0.08
endloop
endfacet 
facet normal 0 -0 -0.176441
outer loop
vertex 8.01 3.611 0.08
vertex 8.01 3.589 0.08
vertex -0.01 3.61 0.08
endloop
endfacet 
facet normal 0 0 0.00655601
outer loop
vertex 8.01 3.611 0.08
vertex 8.01 3.589 0.08
vertex 8.308 3.549 0.08
endloop
endfacet 
facet normal 0 0 -0.00655601
outer loop
vertex 8.308 3.549 0.08
vertex 8.01 3.589 0.08
vertex 8.01 3.611 0.08
endloop
endfacet 
facet normal -0.0032 -0.02384 -0
outer loop
vertex 8.01 3.589 0.08
vertex 8.01 3.589 0
vertex 8.308 3.549 0
endloop
endfacet 
facet normal -0.0032 -0.02384 0
outer loop
vertex 8.01 3.589 0.08
vertex 8.308 3.549 0
vertex 8.308 3.549 0.08
endloop
endfacet 
facet normal 0.0032 0.02384 -0
outer loop
vertex 8.01 3.589 0
vertex 8.01 3.589 0.08
vertex 8.308 3.549 0.08
endloop
endfacet 
facet normal 0.0032 0.02384 0
outer loop
vertex 8.01 3.589 0
vertex 8.308 3.549 0.08
vertex 8.308 3.549 0
endloop
endfacet 
facet normal -0.00952 -0.0229601 -0
outer loop
vertex 8.308 3.549 0.08
vertex 8.308 3.549 0
vertex 8.595 3.43 0
endloop
endfacet 
facet normal -0.00952 -0.0229601 0
outer loop
vertex 8.308 3.549 0.08
vertex 8.595 3.43 0
vertex 8.595 3.43 0.08
endloop
endfacet 
facet normal 0.00952 0.0229601 -0
outer loop
vertex 8.308 3.549 0
vertex 8.308 3.549 0.08
vertex 8.595 3.43 0.08
endloop
endfacet 
facet normal 0.00952 0.0229601 0
outer loop
vertex 8.308 3.549 0
vertex 8.595 3.43 0.08
vertex 8.595 3.43 0
endloop
endfacet 
facet normal 0 0 0.0292741
outer loop
vertex 8.308 3.651 0.08
vertex 8.308 3.549 0.08
vertex 8.595 3.43 0.08
endloop
endfacet 
facet normal -0 0 0.0303959
outer loop
vertex 8.01 3.611 0.08
vertex 8.308 3.549 0.08
vertex 8.308 3.651 0.08
endloop
endfacet 
facet normal 0 -0 -0.0303959
outer loop
vertex 8.308 3.651 0.08
vertex 8.308 3.549 0.08
vertex 8.01 3.611 0.08
endloop
endfacet 
facet normal 0 0 -0.0292741
outer loop
vertex 8.595 3.43 0.08
vertex 8.308 3.549 0.08
vertex 8.308 3.651 0.08
endloop
endfacet 
facet normal -0 0 0.0975802
outer loop
vertex 8.308 3.651 0.08
vertex 8.595 3.43 0.08
vertex 8.595 3.77 0.08
endloop
endfacet 
facet normal 0 -0 -0.0975802
outer loop
vertex 8.595 3.77 0.08
vertex 8.595 3.43 0.08
vertex 8.308 3.651 0.08
endloop
endfacet 
facet normal -0 0 0.0836398
outer loop
vertex 8.595 3.77 0.08
vertex 8.595 3.43 0.08
vertex 8.841 3.959 0.08
endloop
endfacet 
facet normal 0 0 -0.0836398
outer loop
vertex 8.841 3.959 0.08
vertex 8.595 3.43 0.08
vertex 8.595 3.77 0.08
endloop
endfacet 
facet normal 0 0 0.176628
outer loop
vertex 8.841 3.959 0.08
vertex 8.595 3.43 0.08
vertex 8.841 3.241 0.08
endloop
endfacet 
facet normal 0 0 -0.176628
outer loop
vertex 8.841 3.241 0.08
vertex 8.595 3.43 0.08
vertex 8.841 3.959 0.08
endloop
endfacet 
facet normal -0.01512 -0.0196799 -0
outer loop
vertex 8.595 3.43 0.08
vertex 8.595 3.43 0
vertex 8.841 3.241 0
endloop
endfacet 
facet normal -0.01512 -0.0196799 0
outer loop
vertex 8.595 3.43 0.08
vertex 8.841 3.241 0
vertex 8.841 3.241 0.08
endloop
endfacet 
facet normal 0.01512 0.0196799 -0
outer loop
vertex 8.595 3.43 0
vertex 8.595 3.43 0.08
vertex 8.841 3.241 0.08
endloop
endfacet 
facet normal 0.01512 0.0196799 0
outer loop
vertex 8.595 3.43 0
vertex 8.841 3.241 0.08
vertex 8.841 3.241 0
endloop
endfacet 
facet normal -0.01968 -0.01512 -0
outer loop
vertex 8.841 3.241 0.08
vertex 8.841 3.241 0
vertex 9.03 2.995 0
endloop
endfacet 
facet normal -0.01968 -0.01512 0
outer loop
vertex 8.841 3.241 0.08
vertex 9.03 2.995 0
vertex 9.03 2.995 0.08
endloop
endfacet 
facet normal 0.01968 0.01512 -0
outer loop
vertex 8.841 3.241 0
vertex 8.841 3.241 0.08
vertex 9.03 2.995 0.08
endloop
endfacet 
facet normal 0.01968 0.01512 0
outer loop
vertex 8.841 3.241 0
vertex 9.03 2.995 0.08
vertex 9.03 2.995 0
endloop
endfacet 
facet normal 0 0 0.135702
outer loop
vertex 8.841 3.959 0.08
vertex 8.841 3.241 0.08
vertex 9.03 2.995 0.08
endloop
endfacet 
facet normal 0 0 -0.135702
outer loop
vertex 9.03 2.995 0.08
vertex 8.841 3.241 0.08
vertex 8.841 3.959 0.08
endloop
endfacet 
facet normal -0 0 0.22869
outer loop
vertex 8.841 3.959 0.08
vertex 9.03 2.995 0.08
vertex 9.03 4.205 0.08
endloop
endfacet 
facet normal 0 -0 -0.22869
outer loop
vertex 9.03 4.205 0.08
vertex 9.03 2.995 0.08
vertex 8.841 3.959 0.08
endloop
endfacet 
facet normal 0 0 0.143991
outer loop
vertex 9.03 4.205 0.08
vertex 9.03 2.995 0.08
vertex 9.149 2.708 0.08
endloop
endfacet 
facet normal 0 0 -0.143991
outer loop
vertex 9.149 2.708 0.08
vertex 9.03 2.995 0.08
vertex 9.03 4.205 0.08
endloop
endfacet 
facet normal -0.02296 -0.00952003 -0
outer loop
vertex 9.03 2.995 0.08
vertex 9.03 2.995 0
vertex 9.149 2.708 0
endloop
endfacet 
facet normal -0.02296 -0.00952003 0
outer loop
vertex 9.03 2.995 0.08
vertex 9.149 2.708 0
vertex 9.149 2.708 0.08
endloop
endfacet 
facet normal 0.02296 0.00952003 -0
outer loop
vertex 9.03 2.995 0
vertex 9.03 2.995 0.08
vertex 9.149 2.708 0.08
endloop
endfacet 
facet normal 0.02296 0.00952003 0
outer loop
vertex 9.03 2.995 0
vertex 9.149 2.708 0.08
vertex 9.149 2.708 0
endloop
endfacet 
facet normal -0.02464 -0.00327995 -0
outer loop
vertex 9.149 2.708 0.08
vertex 9.149 2.708 0
vertex 9.19 2.4 0
endloop
endfacet 
facet normal -0.02464 -0.00327995 0
outer loop
vertex 9.149 2.708 0.08
vertex 9.19 2.4 0
vertex 9.19 2.4 0.08
endloop
endfacet 
facet normal 0.02464 0.00327995 -0
outer loop
vertex 9.149 2.708 0
vertex 9.149 2.708 0.08
vertex 9.19 2.4 0.08
endloop
endfacet 
facet normal 0.02464 0.00327995 0
outer loop
vertex 9.149 2.708 0
vertex 9.19 2.4 0.08
vertex 9.19 2.4 0
endloop
endfacet 
facet normal 0 0 0.073143
outer loop
vertex 9.149 4.492 0.08
vertex 9.149 2.708 0.08
vertex 9.19 2.4 0.08
endloop
endfacet 
facet normal -0 0 0.212297
outer loop
vertex 9.03 4.205 0.08
vertex 9.149 2.708 0.08
vertex 9.149 4.492 0.08
endloop
endfacet 
facet normal 0 -0 -0.212297
outer loop
vertex 9.149 4.492 0.08
vertex 9.149 2.708 0.08
vertex 9.03 4.205 0.08
endloop
endfacet 
facet normal 0 0 -0.073143
outer loop
vertex 9.19 2.4 0.08
vertex 9.149 2.708 0.08
vertex 9.149 4.492 0.08
endloop
endfacet 
facet normal -0 0 0.0983986
outer loop
vertex 9.149 4.492 0.08
vertex 9.19 2.4 0.08
vertex 9.19 4.8 0.08
endloop
endfacet 
facet normal 0 -0 -0.0983986
outer loop
vertex 9.19 4.8 0.08
vertex 9.19 2.4 0.08
vertex 9.149 4.492 0.08
endloop
endfacet 
facet normal -0 0 0
outer loop
vertex 9.19 2.4 0.08
vertex 9.19 1.19 0.08
vertex 9.19 4.8 0.08
endloop
endfacet 
facet normal -0 0 0.0496093
outer loop
vertex 9.149 2.092 0.08
vertex 9.19 1.19 0.08
vertex 9.19 2.4 0.08
endloop
endfacet 
facet normal -0 0 0.119105
outer loop
vertex 9.03 1.805 0.08
vertex 9.19 1.19 0.08
vertex 9.149 2.092 0.08
endloop
endfacet 
facet normal -0 0 0.155595
outer loop
vertex 8.841 1.559 0.08
vertex 9.19 1.19 0.08
vertex 9.03 1.805 0.08
endloop
endfacet 
facet normal -0 0 0.156735
outer loop
vertex 8.595 1.37 0.08
vertex 9.19 1.19 0.08
vertex 8.841 1.559 0.08
endloop
endfacet 
facet normal -0 0 0.122465
outer loop
vertex 8.308 1.251 0.08
vertex 9.19 1.19 0.08
vertex 8.595 1.37 0.08
endloop
endfacet 
facet normal -0 0 0.053458
outer loop
vertex 8.01 1.211 0.08
vertex 9.19 1.19 0.08
vertex 8.308 1.251 0.08
endloop
endfacet 
facet normal 0 0 0.0251999
outer loop
vertex 8.01 1.211 0.08
vertex 7.99 1.19 0.08
vertex 9.19 1.19 0.08
endloop
endfacet 
facet normal -0 0 0.168399
outer loop
vertex -0.01 1.21 0.08
vertex 7.99 1.19 0.08
vertex 8.01 1.211 0.08
endloop
endfacet 
facet normal 0 0 0.16
outer loop
vertex 7.99 1.19 0.08
vertex -0.01 1.21 0.08
vertex -0.01 1.19 0.08
endloop
endfacet 
facet normal 0 0 -0.16
outer loop
vertex -0.01 1.19 0.08
vertex -0.01 1.21 0.08
vertex 7.99 1.19 0.08
endloop
endfacet 
facet normal -0.0016 0 0
outer loop
vertex -0.01 1.19 0
vertex -0.01 1.19 0.08
vertex -0.01 1.21 0.08
endloop
endfacet 
facet normal -0.0016 0 0
outer loop
vertex -0.01 1.19 0
vertex -0.01 1.21 0.08
vertex -0.01 1.21 0
endloop
endfacet 
facet normal 0.0016 0 0
outer loop
vertex -0.01 1.19 0.08
vertex -0.01 1.19 0
vertex -0.01 1.21 0
endloop
endfacet 
facet normal 0.0016 -0 0
outer loop
vertex -0.01 1.19 0.08
vertex -0.01 1.21 0
vertex -0.01 1.21 0.08
endloop
endfacet 
facet normal 0 0 0.0541999
outer loop
vertex -0.01 1.21 0
vertex -0.01 1.19 0
vertex 2.7 1.191 0
endloop
endfacet 
facet normal 0 0 0.1604
outer loop
vertex -0.01 2.389 0
vertex 8.01 2.39 0
vertex 8.01 2.41 0
endloop
endfacet 
facet normal 0 0 0.0649298
outer loop
vertex -0.01 2.389 0
vertex 8.01 2.41 0
vertex 5.3 2.411 0
endloop
endfacet 
facet normal 0 0 6.25518
outer loop
vertex -0.01 2.389 0
vertex 5.3 2.411 0
vertex 5.3 3.589 0
endloop
endfacet 
facet normal 0 0 0.1452
outer loop
vertex -0.308 2.349 0
vertex -0.01 2.389 0
vertex 5.3 3.589 0
endloop
endfacet 
facet normal 0 0 0.15509
outer loop
vertex 8.01 1.211 0
vertex -0.01 1.21 0
vertex 2.7 1.191 0
endloop
endfacet 
facet normal 0 0 6.2658
outer loop
vertex 8.01 1.211 0
vertex 2.7 1.191 0
vertex 2.7 0.011 0
endloop
endfacet 
facet normal 0 0 0.145199
outer loop
vertex 8.308 1.251 0
vertex 8.01 1.211 0
vertex 2.7 0.011 0
endloop
endfacet 
facet normal 0 0 -3.3604
outer loop
vertex 8.308 1.251 0
vertex 2.7 0.011 0
vertex -0.01 0.011 0
endloop
endfacet 
facet normal 0 0 -0.702239
outer loop
vertex 8.308 1.251 0
vertex -0.01 0.011 0
vertex -0.308 0.051 0
endloop
endfacet 
facet normal 0 0 -1.3697
outer loop
vertex 8.308 1.251 0
vertex -0.308 0.051 0
vertex -0.595 0.17 0
endloop
endfacet 
facet normal 0 0 -1.94859
outer loop
vertex 8.308 1.251 0
vertex -0.595 0.17 0
vertex -0.841 0.359 0
endloop
endfacet 
facet normal 0 0 -2.41924
outer loop
vertex 8.308 1.251 0
vertex -0.841 0.359 0
vertex -1.03 0.605 0
endloop
endfacet 
facet normal 0 0 -2.75688
outer loop
vertex 8.308 1.251 0
vertex -1.03 0.605 0
vertex -1.149 0.892 0
endloop
endfacet 
facet normal 0 0 -2.92747
outer loop
vertex 8.308 1.251 0
vertex -1.149 0.892 0
vertex -1.19 1.2 0
endloop
endfacet 
facet normal -0 0 -2.92329
outer loop
vertex 8.308 1.251 0
vertex -1.19 1.2 0
vertex -1.149 1.508 0
endloop
endfacet 
facet normal 0 0 -2.74474
outer loop
vertex 8.308 1.251 0
vertex -1.149 1.508 0
vertex -1.03 1.795 0
endloop
endfacet 
facet normal 0 0 -2.39996
outer loop
vertex 8.308 1.251 0
vertex -1.03 1.795 0
vertex -0.841 2.041 0
endloop
endfacet 
facet normal 0 0 -1.9235
outer loop
vertex 8.308 1.251 0
vertex -0.841 2.041 0
vertex -0.595 2.23 0
endloop
endfacet 
facet normal 0 0 -1.34043
outer loop
vertex 8.308 1.251 0
vertex -0.595 2.23 0
vertex -0.308 2.349 0
endloop
endfacet 
facet normal 0 0 -16.8414
outer loop
vertex 8.308 1.251 0
vertex -0.308 2.349 0
vertex 5.3 3.589 0
endloop
endfacet 
facet normal 0 0 -6.33598
outer loop
vertex 8.308 1.251 0
vertex 5.3 3.589 0
vertex 8.01 3.589 0
endloop
endfacet 
facet normal 0 0 -0.684803
outer loop
vertex 8.308 1.251 0
vertex 8.01 3.589 0
vertex 8.308 3.549 0
endloop
endfacet 
facet normal 0 0 -0.659527
outer loop
vertex 8.308 1.251 0
vertex 8.308 3.549 0
vertex 8.595 3.43 0
endloop
endfacet 
facet normal 0 0 -0.590276
outer loop
vertex 8.308 1.251 0
vertex 8.595 3.43 0
vertex 8.841 3.241 0
endloop
endfacet 
facet normal 0 0 -0.507228
outer loop
vertex 8.308 1.251 0
vertex 8.841 3.241 0
vertex 9.03 2.995 0
endloop
endfacet 
facet normal 0 0 -0.414751
outer loop
vertex 8.308 1.251 0
vertex 9.03 2.995 0
vertex 9.149 2.708 0
endloop
endfacet 
facet normal 0 0 -0.318764
outer loop
vertex 8.308 1.251 0
vertex 9.149 2.708 0
vertex 9.19 2.4 0
endloop
endfacet 
facet normal 0 0 -0.224548
outer loop
vertex 8.308 1.251 0
vertex 9.19 2.4 0
vertex 9.149 2.092 0
endloop
endfacet 
facet normal 0 0 -0.141288
outer loop
vertex 8.308 1.251 0
vertex 9.149 2.092 0
vertex 9.03 1.805 0
endloop
endfacet 
facet normal 0 0 -0.0729059
outer loop
vertex 8.308 1.251 0
vertex 9.03 1.805 0
vertex 8.841 1.559 0
endloop
endfacet 
facet normal 0 0 -0.0249692
outer loop
vertex 8.308 1.251 0
vertex 8.841 1.559 0
vertex 8.595 1.37 0
endloop
endfacet 
facet normal 0 0 -0.00259981
outer loop
vertex 2.7 1.191 0
vertex 5.3 1.191 0
vertex 7.99 1.19 0
endloop
endfacet 
facet normal -7.99942e-005 -0.4232 0
outer loop
vertex 2.7 1.191 0
vertex 7.99 1.19 0
vertex 7.99 1.19 0.08
endloop
endfacet 
facet normal 0 -0.64 -0.00799942
outer loop
vertex 2.7 1.191 0
vertex 7.99 1.19 0.08
vertex -0.01 1.19 0.08
endloop
endfacet 
facet normal 7.99942e-005 -0.2168 0
outer loop
vertex 2.7 1.191 0
vertex -0.01 1.19 0.08
vertex -0.01 1.19 0
endloop
endfacet 
facet normal 0 0 0.00259981
outer loop
vertex 5.3 1.191 0
vertex 2.7 1.191 0
vertex -0.01 1.19 0
endloop
endfacet 
facet normal 0 0 0.00799942
outer loop
vertex 7.99 1.19 0
vertex 5.3 1.191 0
vertex -0.01 1.19 0
endloop
endfacet 
facet normal 0 0.64 0
outer loop
vertex 7.99 1.19 0
vertex -0.01 1.19 0
vertex -0.01 1.19 0.08
endloop
endfacet 
facet normal 0 0.64 -0
outer loop
vertex 7.99 1.19 0
vertex -0.01 1.19 0.08
vertex 7.99 1.19 0.08
endloop
endfacet 
facet normal 0 0 0.320503
outer loop
vertex -0.01 1.21 0
vertex 8.01 1.211 0
vertex 8.308 1.251 0
endloop
endfacet 
facet normal 0 0 0.978075
outer loop
vertex -0.01 1.21 0
vertex 8.308 1.251 0
vertex 8.595 1.37 0
endloop
endfacet 
facet normal 0 0 1.58699
outer loop
vertex -0.01 1.21 0
vertex 8.595 1.37 0
vertex 8.841 1.559 0
endloop
endfacet 
facet normal 0 0 2.11138
outer loop
vertex -0.01 1.21 0
vertex 8.841 1.559 0
vertex 9.03 1.805 0
endloop
endfacet 
facet normal 0 0 2.52368
outer loop
vertex -0.01 1.21 0
vertex 9.03 1.805 0
vertex 9.149 2.092 0
endloop
endfacet 
facet normal 0 0 2.78481
outer loop
vertex -0.01 1.21 0
vertex 9.149 2.092 0
vertex 9.19 2.4 0
endloop
endfacet 
facet normal 0 0 2.88239
outer loop
vertex -0.01 1.21 0
vertex 9.19 2.4 0
vertex 9.149 2.708 0
endloop
endfacet 
facet normal 0 0 2.8069
outer loop
vertex -0.01 1.21 0
vertex 9.149 2.708 0
vertex 9.03 2.995 0
endloop
endfacet 
facet normal 0 0 2.56121
outer loop
vertex -0.01 1.21 0
vertex 9.03 2.995 0
vertex 8.841 3.241 0
endloop
endfacet 
facet normal 0 0 2.17246
outer loop
vertex -0.01 1.21 0
vertex 8.841 3.241 0
vertex 8.595 3.43 0
endloop
endfacet 
facet normal 0 0 1.66114
outer loop
vertex -0.01 1.21 0
vertex 8.595 3.43 0
vertex 8.308 3.549 0
endloop
endfacet 
facet normal 0 0 1.02974
outer loop
vertex -0.01 1.21 0
vertex 8.308 3.549 0
vertex 8.01 3.589 0
endloop
endfacet 
facet normal 0 0 6.44709
outer loop
vertex -0.01 1.21 0
vertex 8.01 3.589 0
vertex 5.3 3.589 0
endloop
endfacet 
facet normal 0 0 3.19238
outer loop
vertex 5.3 3.589 0
vertex 5.3 2.411 0
vertex 8.01 2.41 0
endloop
endfacet 
facet normal 0 0 0.320502
outer loop
vertex 8.01 2.39 0
vertex -0.01 2.389 0
vertex -0.308 2.349 0
endloop
endfacet 
facet normal 0 0 0.978075
outer loop
vertex 8.01 2.39 0
vertex -0.308 2.349 0
vertex -0.595 2.23 0
endloop
endfacet 
facet normal 0 0 1.58699
outer loop
vertex 8.01 2.39 0
vertex -0.595 2.23 0
vertex -0.841 2.041 0
endloop
endfacet 
facet normal 0 0 2.11138
outer loop
vertex 8.01 2.39 0
vertex -0.841 2.041 0
vertex -1.03 1.795 0
endloop
endfacet 
facet normal 0 0 2.52367
outer loop
vertex 8.01 2.39 0
vertex -1.03 1.795 0
vertex -1.149 1.508 0
endloop
endfacet 
facet normal 0 0 2.78481
outer loop
vertex 8.01 2.39 0
vertex -1.149 1.508 0
vertex -1.19 1.2 0
endloop
endfacet 
facet normal 0 0 2.88239
outer loop
vertex 8.01 2.39 0
vertex -1.19 1.2 0
vertex -1.149 0.892 0
endloop
endfacet 
facet normal 0 0 2.8069
outer loop
vertex 8.01 2.39 0
vertex -1.149 0.892 0
vertex -1.03 0.605 0
endloop
endfacet 
facet normal 0 0 2.56121
outer loop
vertex 8.01 2.39 0
vertex -1.03 0.605 0
vertex -0.841 0.359 0
endloop
endfacet 
facet normal 0 0 2.17246
outer loop
vertex 8.01 2.39 0
vertex -0.841 0.359 0
vertex -0.595 0.17 0
endloop
endfacet 
facet normal 0 0 1.66114
outer loop
vertex 8.01 2.39 0
vertex -0.595 0.17 0
vertex -0.308 0.051 0
endloop
endfacet 
facet normal 0 0 1.02974
outer loop
vertex 8.01 2.39 0
vertex -0.308 0.051 0
vertex -0.01 0.011 0
endloop
endfacet 
facet normal 0 0 6.44709
outer loop
vertex 8.01 2.39 0
vertex -0.01 0.011 0
vertex 2.7 0.011 0
endloop
endfacet 
facet normal 0 -0 3.1978
outer loop
vertex 2.7 0.011 0
vertex 2.7 1.191 0
vertex -0.01 1.19 0
endloop
endfacet 
facet normal 0 0 -0.1062
outer loop
vertex -0.01 1.19 0
vertex -0.01 1.21 0
vertex 5.3 3.589 0
endloop
endfacet 
facet normal 0 0 -12.7618
outer loop
vertex -0.01 1.19 0
vertex 5.3 3.589 0
vertex 8.01 2.41 0
endloop
endfacet 
facet normal 0 0 -0.1604
outer loop
vertex -0.01 1.19 0
vertex 8.01 2.41 0
vertex 8.01 2.39 0
endloop
endfacet 
facet normal 0 0 -12.7076
outer loop
vertex -0.01 1.19 0
vertex 8.01 2.39 0
vertex 2.7 0.011 0
endloop
endfacet 
facet normal -7.99942e-005 0.6416 0
outer loop
vertex 8.01 1.211 0.08
vertex 8.01 1.211 0
vertex -0.01 1.21 0
endloop
endfacet 
facet normal -7.99942e-005 0.6416 0
outer loop
vertex 8.01 1.211 0.08
vertex -0.01 1.21 0
vertex -0.01 1.21 0.08
endloop
endfacet 
facet normal 7.99942e-005 -0.6416 0
outer loop
vertex 8.01 1.211 0
vertex 8.01 1.211 0.08
vertex -0.01 1.21 0.08
endloop
endfacet 
facet normal 7.99942e-005 -0.6416 0
outer loop
vertex 8.01 1.211 0
vertex -0.01 1.21 0.08
vertex -0.01 1.21 0
endloop
endfacet 
facet normal 0 0 -0.168399
outer loop
vertex 8.01 1.211 0.08
vertex 7.99 1.19 0.08
vertex -0.01 1.21 0.08
endloop
endfacet 
facet normal 0 0 -0.0251999
outer loop
vertex 9.19 1.19 0.08
vertex 7.99 1.19 0.08
vertex 8.01 1.211 0.08
endloop
endfacet 
facet normal 0 -0.096 0
outer loop
vertex 9.19 1.19 0
vertex 9.19 1.19 0.08
vertex 7.99 1.19 0.08
endloop
endfacet 
facet normal 0 -0.096 0
outer loop
vertex 9.19 1.19 0
vertex 7.99 1.19 0.08
vertex 7.99 1.19 0
endloop
endfacet 
facet normal 0 0.096 0
outer loop
vertex 9.19 1.19 0.08
vertex 9.19 1.19 0
vertex 7.99 1.19 0
endloop
endfacet 
facet normal 0 0.096 0
outer loop
vertex 9.19 1.19 0.08
vertex 7.99 1.19 0
vertex 7.99 1.19 0.08
endloop
endfacet 
facet normal 0 -0 1.416
outer loop
vertex 9.19 0.01 0
vertex 9.19 1.19 0
vertex 7.99 1.19 0
endloop
endfacet 
facet normal 0 0 3.173
outer loop
vertex 9.19 0.01 0
vertex 7.99 1.19 0
vertex 5.3 1.191 0
endloop
endfacet 
facet normal 0 0 4.5902
outer loop
vertex 9.19 0.01 0
vertex 5.3 1.191 0
vertex 5.3 0.011 0
endloop
endfacet 
facet normal 0 0 0.0012
outer loop
vertex 9.19 0.01 0
vertex 5.3 0.011 0
vertex 7.99 0.01 0
endloop
endfacet 
facet normal 0 0 0
outer loop
vertex 9.19 0.01 0
vertex 7.99 0.01 0
vertex 8 0.01 0
endloop
endfacet 
facet normal 0 -0 -1.4042
outer loop
vertex 9.19 1.19 0
vertex 9.19 0.01 0
vertex 8 0.01 0
endloop
endfacet 
facet normal 0 0 -0.0118003
outer loop
vertex 9.19 1.19 0
vertex 8 0.01 0
vertex 7.99 0.01 0
endloop
endfacet 
facet normal 0 0 -3.1754
outer loop
vertex 9.19 1.19 0
vertex 7.99 0.01 0
vertex 5.3 0.011 0
endloop
endfacet 
facet normal -0 0 -4.5902
outer loop
vertex 9.19 1.19 0
vertex 5.3 0.011 0
vertex 5.3 1.191 0
endloop
endfacet 
facet normal 0 0 0.00119991
outer loop
vertex 9.19 1.19 0
vertex 5.3 1.191 0
vertex 7.99 1.19 0
endloop
endfacet 
facet normal 0 0.096 0
outer loop
vertex 7.99 0.01 0
vertex 7.99 0.01 0.08
vertex 9.19 0.01 0.08
endloop
endfacet 
facet normal 0 0.096 0
outer loop
vertex 7.99 0.01 0
vertex 9.19 0.01 0.08
vertex 9.19 0.01 0
endloop
endfacet 
facet normal 0 0 0
outer loop
vertex 7.99 0.01 0
vertex 9.19 0.01 0
vertex 8 0.01 0
endloop
endfacet 
facet normal -0 0 0.012
outer loop
vertex 7.99 0.01 0.08
vertex 9.2 0 0.08
vertex 9.19 0.01 0.08
endloop
endfacet 
facet normal 0 0 0.07879
outer loop
vertex -0.01 0.011 0.08
vertex 9.2 0 0.08
vertex 7.99 0.01 0.08
endloop
endfacet 
facet normal 0 0 0.1144
outer loop
vertex -0.01 0.011 0.08
vertex -1.2 0 0.08
vertex 9.2 0 0.08
endloop
endfacet 
facet normal 0 0 0.050878
outer loop
vertex -0.308 0.051 0.08
vertex -1.2 0 0.08
vertex -0.01 0.011 0.08
endloop
endfacet 
facet normal 0 0 0.120785
outer loop
vertex -0.595 0.17 0.08
vertex -1.2 0 0.08
vertex -0.308 0.051 0.08
endloop
endfacet 
facet normal 0 0 0.156165
outer loop
vertex -0.841 0.359 0.08
vertex -1.2 0 0.08
vertex -0.595 0.17 0.08
endloop
endfacet 
facet normal 0 0 0.156165
outer loop
vertex -1.03 0.605 0.08
vertex -1.2 0 0.08
vertex -0.841 0.359 0.08
endloop
endfacet 
facet normal 0 0 0.120785
outer loop
vertex -1.149 0.892 0.08
vertex -1.2 0 0.08
vertex -1.03 0.605 0.08
endloop
endfacet 
facet normal 0 0 0.05228
outer loop
vertex -1.19 1.2 0.08
vertex -1.2 0 0.08
vertex -1.149 0.892 0.08
endloop
endfacet 
facet normal 0 0 0.0599999
outer loop
vertex -1.2 0 0.08
vertex -1.19 1.2 0.08
vertex -1.2 6 0.08
endloop
endfacet 
facet normal 0 0 -0.0599999
outer loop
vertex -1.2 6 0.08
vertex -1.19 1.2 0.08
vertex -1.2 0 0.08
endloop
endfacet 
facet normal 0 0 0.0361
outer loop
vertex -1.2 6 0.08
vertex -1.19 1.2 0.08
vertex -1.19 4.81 0.08
endloop
endfacet 
facet normal -0 -0 -0.0361
outer loop
vertex -1.19 4.81 0.08
vertex -1.19 1.2 0.08
vertex -1.2 6 0.08
endloop
endfacet 
facet normal 0 0 -0
outer loop
vertex -1.19 3.6 0.08
vertex -1.19 4.81 0.08
vertex -1.19 1.2 0.08
endloop
endfacet 
facet normal 0 0 0.04961
outer loop
vertex -1.149 3.908 0.08
vertex -1.19 4.81 0.08
vertex -1.19 3.6 0.08
endloop
endfacet 
facet normal 0 0 0.119105
outer loop
vertex -1.03 4.195 0.08
vertex -1.19 4.81 0.08
vertex -1.149 3.908 0.08
endloop
endfacet 
facet normal 0 0 0.155595
outer loop
vertex -0.841 4.441 0.08
vertex -1.19 4.81 0.08
vertex -1.03 4.195 0.08
endloop
endfacet 
facet normal 0 0 0.156735
outer loop
vertex -0.595 4.63 0.08
vertex -1.19 4.81 0.08
vertex -0.841 4.441 0.08
endloop
endfacet 
facet normal 0 0 0.122465
outer loop
vertex -0.308 4.749 0.08
vertex -1.19 4.81 0.08
vertex -0.595 4.63 0.08
endloop
endfacet 
facet normal -0 0 0.0731998
outer loop
vertex -1.19 4.81 0.08
vertex -0.308 4.749 0.08
vertex 0.01 4.81 0.08
endloop
endfacet 
facet normal -0 0 -0.0731998
outer loop
vertex 0.01 4.81 0.08
vertex -0.308 4.749 0.08
vertex -1.19 4.81 0.08
endloop
endfacet 
facet normal 0 0 0.00545797
outer loop
vertex 0.01 4.81 0.08
vertex -0.308 4.749 0.08
vertex -0.01 4.789 0.08
endloop
endfacet 
facet normal -0 0 -0.00545797
outer loop
vertex -0.01 4.789 0.08
vertex -0.308 4.749 0.08
vertex 0.01 4.81 0.08
endloop
endfacet 
facet normal 0.0032 -0.02384 0
outer loop
vertex -0.308 4.749 0.08
vertex -0.308 4.749 0
vertex -0.01 4.789 0
endloop
endfacet 
facet normal 0.0032 -0.02384 0
outer loop
vertex -0.308 4.749 0.08
vertex -0.01 4.789 0
vertex -0.01 4.789 0.08
endloop
endfacet 
facet normal -0.0032 0.02384 0
outer loop
vertex -0.308 4.749 0
vertex -0.308 4.749 0.08
vertex -0.01 4.789 0.08
endloop
endfacet 
facet normal -0.0032 0.02384 0
outer loop
vertex -0.308 4.749 0
vertex -0.01 4.789 0.08
vertex -0.01 4.789 0
endloop
endfacet 
facet normal 7.99942e-005 -0.6416 0
outer loop
vertex -0.01 4.789 0.08
vertex -0.01 4.789 0
vertex 8.01 4.79 0
endloop
endfacet 
facet normal 7.99942e-005 -0.6416 0
outer loop
vertex -0.01 4.789 0.08
vertex 8.01 4.79 0
vertex 8.01 4.79 0.08
endloop
endfacet 
facet normal -7.99942e-005 0.6416 0
outer loop
vertex -0.01 4.789 0
vertex -0.01 4.789 0.08
vertex 8.01 4.79 0.08
endloop
endfacet 
facet normal -7.99942e-005 0.6416 0
outer loop
vertex -0.01 4.789 0
vertex 8.01 4.79 0.08
vertex 8.01 4.79 0
endloop
endfacet 
facet normal 0 0 0.168399
outer loop
vertex 0.01 4.81 0.08
vertex -0.01 4.789 0.08
vertex 8.01 4.79 0.08
endloop
endfacet 
facet normal -0 0 -0.168399
outer loop
vertex 8.01 4.79 0.08
vertex -0.01 4.789 0.08
vertex 0.01 4.81 0.08
endloop
endfacet 
facet normal -0 0 0.16
outer loop
vertex 0.01 4.81 0.08
vertex 8.01 4.79 0.08
vertex 8.01 4.81 0.08
endloop
endfacet 
facet normal -0 -0 -0.16
outer loop
vertex 8.01 4.81 0.08
vertex 8.01 4.79 0.08
vertex 0.01 4.81 0.08
endloop
endfacet 
facet normal 0 -0.02 0
outer loop
vertex 5.3 4.81 0
vertex 3.772 4.81 0.04
vertex 3.272 4.81 0.04
endloop
endfacet 
facet normal 0 -0.104 0
outer loop
vertex 5.3 4.81 0
vertex 3.272 4.81 0.04
vertex 2.7 4.81 0
endloop
endfacet 
facet normal 0 0 0
outer loop
vertex 5.3 4.81 0
vertex 2.7 4.81 0
vertex 0.01 4.81 0
endloop
endfacet 
facet normal 0 0 0
outer loop
vertex 8.01 4.81 0
vertex 5.3 4.81 0
vertex 0.01 4.81 0
endloop
endfacet 
facet normal 0 0.64 0
outer loop
vertex 8.01 4.81 0
vertex 0.01 4.81 0
vertex 0.01 4.81 0.08
endloop
endfacet 
facet normal 0 0.64 -0
outer loop
vertex 8.01 4.81 0
vertex 0.01 4.81 0.08
vertex 8.01 4.81 0.08
endloop
endfacet 
facet normal 0 -0.1084 0
outer loop
vertex 3.772 4.81 0.04
vertex 5.3 4.81 0
vertex 8.01 4.81 0
endloop
endfacet 
facet normal 0 -0.33904 0
outer loop
vertex 3.772 4.81 0.04
vertex 8.01 4.81 0
vertex 8.01 4.81 0.08
endloop
endfacet 
facet normal 0 -0.02 0
outer loop
vertex 3.272 4.81 0.04
vertex 3.772 4.81 0.04
vertex 8.01 4.81 0.08
endloop
endfacet 
facet normal 0 -0.32 0
outer loop
vertex 3.272 4.81 0.04
vertex 8.01 4.81 0.08
vertex 0.01 4.81 0.08
endloop
endfacet 
facet normal 0 -0.15336 0
outer loop
vertex 2.7 4.81 0
vertex 3.272 4.81 0.04
vertex 0.01 4.81 0.08
endloop
endfacet 
facet normal 0 -0.2152 0
outer loop
vertex 2.7 4.81 0
vertex 0.01 4.81 0.08
vertex 0.01 4.81 0
endloop
endfacet 
facet normal 0 -0 0.59
outer loop
vertex 3.772 4.81 0.04
vertex 3.772 5.99 0.04
vertex 3.272 5.99 0.04
endloop
endfacet 
facet normal 0 0 0.59
outer loop
vertex 3.772 4.81 0.04
vertex 3.272 5.99 0.04
vertex 3.272 4.81 0.04
endloop
endfacet 
facet normal 0 -0 -0.59
outer loop
vertex 3.772 5.99 0.04
vertex 3.772 4.81 0.04
vertex 3.272 4.81 0.04
endloop
endfacet 
facet normal -0 0 -0.59
outer loop
vertex 3.772 5.99 0.04
vertex 3.272 4.81 0.04
vertex 3.272 5.99 0.04
endloop
endfacet 
facet normal 0 0.104 0
outer loop
vertex 3.772 4.81 0.04
vertex 5.3 4.81 0
vertex 2.7 4.81 0
endloop
endfacet 
facet normal 0 0.02 0
outer loop
vertex 3.772 4.81 0.04
vertex 2.7 4.81 0
vertex 3.272 4.81 0.04
endloop
endfacet 
facet normal 0 -0.02 0
outer loop
vertex 5.3 4.81 0
vertex 3.772 4.81 0.04
vertex 3.272 4.81 0.04
endloop
endfacet 
facet normal 0 -0.104 0
outer loop
vertex 5.3 4.81 0
vertex 3.272 4.81 0.04
vertex 2.7 4.81 0
endloop
endfacet 
facet normal -0.0472 0 0.67496
outer loop
vertex 3.272 4.81 0.04
vertex 3.272 5.99 0.04
vertex 2.7 5.99 0
endloop
endfacet 
facet normal -0.0472 0 0.67496
outer loop
vertex 3.272 4.81 0.04
vertex 2.7 5.99 0
vertex 2.7 4.81 0
endloop
endfacet 
facet normal 0 0.104 0
outer loop
vertex 3.772 5.99 0.04
vertex 5.3 5.99 0
vertex 2.7 5.99 0
endloop
endfacet 
facet normal 0 0.02 0
outer loop
vertex 3.772 5.99 0.04
vertex 2.7 5.99 0
vertex 3.272 5.99 0.04
endloop
endfacet 
facet normal 0 -0.02 0
outer loop
vertex 5.3 5.99 0
vertex 3.772 5.99 0.04
vertex 3.272 5.99 0.04
endloop
endfacet 
facet normal 0 -0.104 0
outer loop
vertex 5.3 5.99 0
vertex 3.272 5.99 0.04
vertex 2.7 5.99 0
endloop
endfacet 
facet normal 0.0472 0 -0.67496
outer loop
vertex 3.272 5.99 0.04
vertex 3.272 4.81 0.04
vertex 2.7 4.81 0
endloop
endfacet 
facet normal 0.0472 0 -0.67496
outer loop
vertex 3.272 5.99 0.04
vertex 2.7 4.81 0
vertex 2.7 5.99 0
endloop
endfacet 
facet normal 0 0 -3.068
outer loop
vertex 2.7 4.81 0
vertex 2.7 5.99 0
vertex 5.3 5.99 0
endloop
endfacet 
facet normal 0 0 -3.068
outer loop
vertex 2.7 4.81 0
vertex 5.3 5.99 0
vertex 5.3 4.81 0
endloop
endfacet 
facet normal 0 0 3.068
outer loop
vertex 2.7 5.99 0
vertex 2.7 4.81 0
vertex 5.3 4.81 0
endloop
endfacet 
facet normal -0 0 3.068
outer loop
vertex 2.7 5.99 0
vertex 5.3 4.81 0
vertex 5.3 5.99 0
endloop
endfacet 
facet normal 0.0472 -0 1.80304
outer loop
vertex 5.3 4.81 0
vertex 5.3 5.99 0
vertex 3.772 5.99 0.04
endloop
endfacet 
facet normal 0.0472 0 1.80304
outer loop
vertex 5.3 4.81 0
vertex 3.772 5.99 0.04
vertex 3.772 4.81 0.04
endloop
endfacet 
facet normal -0.0472 -0 -1.80304
outer loop
vertex 5.3 5.99 0
vertex 5.3 4.81 0
vertex 3.772 4.81 0.04
endloop
endfacet 
facet normal -0.0472 0 -1.80304
outer loop
vertex 5.3 5.99 0
vertex 3.772 4.81 0.04
vertex 3.772 5.99 0.04
endloop
endfacet 
facet normal 0 -0.2152 0
outer loop
vertex 0.01 5.99 0.08
vertex 0.01 5.99 0
vertex 2.7 5.99 0
endloop
endfacet 
facet normal 0 -0.208 0
outer loop
vertex 0.01 5.99 0.08
vertex 2.7 5.99 0
vertex 5.3 5.99 0
endloop
endfacet 
facet normal -7.99942e-005 -0.2168 -0.00528962
outer loop
vertex 0.01 5.99 0.08
vertex 5.3 5.99 0
vertex 8.01 5.989 0
endloop
endfacet 
facet normal -7.99942e-005 -0.64 0
outer loop
vertex 0.01 5.99 0.08
vertex 8.01 5.989 0
vertex 8.01 5.989 0.08
endloop
endfacet 
facet normal 0 0 0
outer loop
vertex -1.19 4.81 0
vertex 0 4.81 0
vertex 0.01 4.81 0
endloop
endfacet 
facet normal 0 0 0
outer loop
vertex -1.19 4.81 0
vertex 0.01 4.81 0
vertex 2.7 4.81 0
endloop
endfacet 
facet normal 0 0 4.5902
outer loop
vertex -1.19 4.81 0
vertex 2.7 4.81 0
vertex 2.7 5.99 0
endloop
endfacet 
facet normal 0 0 3.1742
outer loop
vertex -1.19 4.81 0
vertex 2.7 5.99 0
vertex 0.01 5.99 0
endloop
endfacet 
facet normal 0 0 1.416
outer loop
vertex -1.19 4.81 0
vertex 0.01 5.99 0
vertex -1.19 5.99 0
endloop
endfacet 
facet normal 0 0.096 0
outer loop
vertex -1.19 4.81 0
vertex -1.19 4.81 0.08
vertex 0.01 4.81 0.08
endloop
endfacet 
facet normal 0 0.096 0
outer loop
vertex -1.19 4.81 0
vertex 0.01 4.81 0.08
vertex 0.01 4.81 0
endloop
endfacet 
facet normal 0 0 0
outer loop
vertex -1.19 4.81 0
vertex 0.01 4.81 0
vertex 0 4.81 0
endloop
endfacet 
facet normal 0 -0.0952 0
outer loop
vertex -1.19 4.81 0.08
vertex -1.19 4.81 0
vertex 0 4.81 0
endloop
endfacet 
facet normal 0 -0.000799999 0
outer loop
vertex -1.19 4.81 0.08
vertex 0 4.81 0
vertex 0.01 4.81 0
endloop
endfacet 
facet normal 0 -0.096 0
outer loop
vertex -1.19 4.81 0.08
vertex 0.01 4.81 0
vertex 0.01 4.81 0.08
endloop
endfacet 
facet normal 0 0 -1.4042
outer loop
vertex 0 4.81 0
vertex -1.19 4.81 0
vertex -1.19 5.99 0
endloop
endfacet 
facet normal 0 0 -1.416
outer loop
vertex 0 4.81 0
vertex -1.19 5.99 0
vertex 0.01 5.99 0
endloop
endfacet 
facet normal 0 0 -3.1742
outer loop
vertex 0 4.81 0
vertex 0.01 5.99 0
vertex 2.7 5.99 0
endloop
endfacet 
facet normal 0 0 -3.186
outer loop
vertex 0 4.81 0
vertex 2.7 5.99 0
vertex 2.7 4.81 0
endloop
endfacet 
facet normal 0 0 0
outer loop
vertex 0 4.81 0
vertex 2.7 4.81 0
vertex 0.01 4.81 0
endloop
endfacet 
facet normal 0.0944 0 -0
outer loop
vertex -1.19 5.99 0
vertex -1.19 5.99 0.08
vertex -1.19 4.81 0.08
endloop
endfacet 
facet normal 0.0944 0 0
outer loop
vertex -1.19 5.99 0
vertex -1.19 4.81 0.08
vertex -1.19 4.81 0
endloop
endfacet 
facet normal 0 0 0.0118
outer loop
vertex -1.19 5.99 0.08
vertex -1.2 6 0.08
vertex -1.19 4.81 0.08
endloop
endfacet 
facet normal -0 0 0.104002
outer loop
vertex -1.2 6 0.08
vertex -1.19 5.99 0.08
vertex 9.2 6 0.08
endloop
endfacet 
facet normal -0 0 -0.104002
outer loop
vertex 9.2 6 0.08
vertex -1.19 5.99 0.08
vertex -1.2 6 0.08
endloop
endfacet 
facet normal 0 0 0.0120003
outer loop
vertex 9.2 6 0.08
vertex -1.19 5.99 0.08
vertex 0.01 5.99 0.08
endloop
endfacet 
facet normal 0 0 -0.0120003
outer loop
vertex 0.01 5.99 0.08
vertex -1.19 5.99 0.08
vertex 9.2 6 0.08
endloop
endfacet 
facet normal 0 -0.096 0
outer loop
vertex 0.01 5.99 0
vertex 0.01 5.99 0.08
vertex -1.19 5.99 0.08
endloop
endfacet 
facet normal 0 -0.096 0
outer loop
vertex 0.01 5.99 0
vertex -1.19 5.99 0.08
vertex -1.19 5.99 0
endloop
endfacet 
facet normal 0 0.096 0
outer loop
vertex 0.01 5.99 0.08
vertex 0.01 5.99 0
vertex -1.19 5.99 0
endloop
endfacet 
facet normal 0 0.096 0
outer loop
vertex 0.01 5.99 0.08
vertex -1.19 5.99 0
vertex -1.19 5.99 0.08
endloop
endfacet 
facet normal -0.0944 0 -0
outer loop
vertex -1.19 5.99 0.08
vertex -1.19 5.99 0
vertex -1.19 4.81 0
endloop
endfacet 
facet normal -0.0944 -0 0
outer loop
vertex -1.19 5.99 0.08
vertex -1.19 4.81 0
vertex -1.19 4.81 0.08
endloop
endfacet 
facet normal 0 0 -0.0118
outer loop
vertex -1.19 4.81 0.08
vertex -1.2 6 0.08
vertex -1.19 5.99 0.08
endloop
endfacet 
facet normal 7.99942e-005 0.64 -0
outer loop
vertex 0.01 5.99 0
vertex 0.01 5.99 0.08
vertex 8.01 5.989 0.08
endloop
endfacet 
facet normal 7.99942e-005 0.64 0
outer loop
vertex 0.01 5.99 0
vertex 8.01 5.989 0.08
vertex 8.01 5.989 0
endloop
endfacet 
facet normal -0 0 0.00528962
outer loop
vertex 0.01 5.99 0
vertex 8.01 5.989 0
vertex 5.3 5.99 0
endloop
endfacet 
facet normal 0 0 0
outer loop
vertex 0.01 5.99 0
vertex 5.3 5.99 0
vertex 2.7 5.99 0
endloop
endfacet 
facet normal 0 0 0.0891912
outer loop
vertex 9.2 6 0.08
vertex 0.01 5.99 0.08
vertex 8.01 5.989 0.08
endloop
endfacet 
facet normal 0 0 -0.0891912
outer loop
vertex 8.01 5.989 0.08
vertex 0.01 5.99 0.08
vertex 9.2 6 0.08
endloop
endfacet 
facet normal 0 0 0.050878
outer loop
vertex 9.2 6 0.08
vertex 8.01 5.989 0.08
vertex 8.308 5.949 0.08
endloop
endfacet 
facet normal 0 0 -0.050878
outer loop
vertex 8.308 5.949 0.08
vertex 8.01 5.989 0.08
vertex 9.2 6 0.08
endloop
endfacet 
facet normal -0.0032 -0.02384 -0
outer loop
vertex 8.01 5.989 0.08
vertex 8.01 5.989 0
vertex 8.308 5.949 0
endloop
endfacet 
facet normal -0.0032 -0.02384 0
outer loop
vertex 8.01 5.989 0.08
vertex 8.308 5.949 0
vertex 8.308 5.949 0.08
endloop
endfacet 
facet normal 0.0032 0.02384 -0
outer loop
vertex 8.01 5.989 0
vertex 8.01 5.989 0.08
vertex 8.308 5.949 0.08
endloop
endfacet 
facet normal 0.0032 0.02384 0
outer loop
vertex 8.01 5.989 0
vertex 8.308 5.949 0.08
vertex 8.308 5.949 0
endloop
endfacet 
facet normal -0.00952 -0.0229601 -0
outer loop
vertex 8.308 5.949 0.08
vertex 8.308 5.949 0
vertex 8.595 5.83 0
endloop
endfacet 
facet normal -0.00952 -0.0229601 0
outer loop
vertex 8.308 5.949 0.08
vertex 8.595 5.83 0
vertex 8.595 5.83 0.08
endloop
endfacet 
facet normal 0.00952 0.0229601 -0
outer loop
vertex 8.308 5.949 0
vertex 8.308 5.949 0.08
vertex 8.595 5.83 0.08
endloop
endfacet 
facet normal 0.00952 0.0229601 0
outer loop
vertex 8.308 5.949 0
vertex 8.595 5.83 0.08
vertex 8.595 5.83 0
endloop
endfacet 
facet normal 0 0 0.120785
outer loop
vertex 9.2 6 0.08
vertex 8.308 5.949 0.08
vertex 8.595 5.83 0.08
endloop
endfacet 
facet normal 0 0 -0.120785
outer loop
vertex 8.595 5.83 0.08
vertex 8.308 5.949 0.08
vertex 9.2 6 0.08
endloop
endfacet 
facet normal 0 0 0.156165
outer loop
vertex 9.2 6 0.08
vertex 8.595 5.83 0.08
vertex 8.841 5.641 0.08
endloop
endfacet 
facet normal 0 0 -0.156165
outer loop
vertex 8.841 5.641 0.08
vertex 8.595 5.83 0.08
vertex 9.2 6 0.08
endloop
endfacet 
facet normal -0.01512 -0.0196799 -0
outer loop
vertex 8.595 5.83 0.08
vertex 8.595 5.83 0
vertex 8.841 5.641 0
endloop
endfacet 
facet normal -0.01512 -0.0196799 0
outer loop
vertex 8.595 5.83 0.08
vertex 8.841 5.641 0
vertex 8.841 5.641 0.08
endloop
endfacet 
facet normal 0.01512 0.0196799 -0
outer loop
vertex 8.595 5.83 0
vertex 8.595 5.83 0.08
vertex 8.841 5.641 0.08
endloop
endfacet 
facet normal 0.01512 0.0196799 0
outer loop
vertex 8.595 5.83 0
vertex 8.841 5.641 0.08
vertex 8.841 5.641 0
endloop
endfacet 
facet normal -0.01968 -0.01512 -0
outer loop
vertex 8.841 5.641 0.08
vertex 8.841 5.641 0
vertex 9.03 5.395 0
endloop
endfacet 
facet normal -0.01968 -0.01512 0
outer loop
vertex 8.841 5.641 0.08
vertex 9.03 5.395 0
vertex 9.03 5.395 0.08
endloop
endfacet 
facet normal 0.01968 0.01512 -0
outer loop
vertex 8.841 5.641 0
vertex 8.841 5.641 0.08
vertex 9.03 5.395 0.08
endloop
endfacet 
facet normal 0.01968 0.01512 0
outer loop
vertex 8.841 5.641 0
vertex 9.03 5.395 0.08
vertex 9.03 5.395 0
endloop
endfacet 
facet normal 0 0 0.156165
outer loop
vertex 9.2 6 0.08
vertex 8.841 5.641 0.08
vertex 9.03 5.395 0.08
endloop
endfacet 
facet normal 0 0 -0.156165
outer loop
vertex 9.03 5.395 0.08
vertex 8.841 5.641 0.08
vertex 9.2 6 0.08
endloop
endfacet 
facet normal 0 0 0.120785
outer loop
vertex 9.2 6 0.08
vertex 9.03 5.395 0.08
vertex 9.149 5.108 0.08
endloop
endfacet 
facet normal 0 0 -0.120785
outer loop
vertex 9.149 5.108 0.08
vertex 9.03 5.395 0.08
vertex 9.2 6 0.08
endloop
endfacet 
facet normal -0.02296 -0.00952003 -0
outer loop
vertex 9.03 5.395 0.08
vertex 9.03 5.395 0
vertex 9.149 5.108 0
endloop
endfacet 
facet normal -0.02296 -0.00952003 0
outer loop
vertex 9.03 5.395 0.08
vertex 9.149 5.108 0
vertex 9.149 5.108 0.08
endloop
endfacet 
facet normal 0.02296 0.00952003 -0
outer loop
vertex 9.03 5.395 0
vertex 9.03 5.395 0.08
vertex 9.149 5.108 0.08
endloop
endfacet 
facet normal 0.02296 0.00952003 0
outer loop
vertex 9.03 5.395 0
vertex 9.149 5.108 0.08
vertex 9.149 5.108 0
endloop
endfacet 
facet normal -0.02464 -0.00327995 -0
outer loop
vertex 9.149 5.108 0.08
vertex 9.149 5.108 0
vertex 9.19 4.8 0
endloop
endfacet 
facet normal -0.02464 -0.00327995 0
outer loop
vertex 9.149 5.108 0.08
vertex 9.19 4.8 0
vertex 9.19 4.8 0.08
endloop
endfacet 
facet normal 0.02464 0.00327995 -0
outer loop
vertex 9.149 5.108 0
vertex 9.149 5.108 0.08
vertex 9.19 4.8 0.08
endloop
endfacet 
facet normal 0.02464 0.00327995 0
outer loop
vertex 9.149 5.108 0
vertex 9.19 4.8 0.08
vertex 9.19 4.8 0
endloop
endfacet 
facet normal 0 0 0.0522794
outer loop
vertex 9.2 6 0.08
vertex 9.149 5.108 0.08
vertex 9.19 4.8 0.08
endloop
endfacet 
facet normal 0 0 -0.0522794
outer loop
vertex 9.19 4.8 0.08
vertex 9.149 5.108 0.08
vertex 9.2 6 0.08
endloop
endfacet 
facet normal 0 0 0.0361008
outer loop
vertex 9.2 6 0.08
vertex 9.19 4.8 0.08
vertex 9.19 1.19 0.08
endloop
endfacet 
facet normal 0 0 -0.0361008
outer loop
vertex 9.19 1.19 0.08
vertex 9.19 4.8 0.08
vertex 9.2 6 0.08
endloop
endfacet 
facet normal 0 0 0
outer loop
vertex 9.19 4.8 0.08
vertex 9.19 1.19 0.08
vertex 9.19 2.4 0.08
endloop
endfacet 
facet normal 0 -0 -0.0496093
outer loop
vertex 9.19 2.4 0.08
vertex 9.19 1.19 0.08
vertex 9.149 2.092 0.08
endloop
endfacet 
facet normal 0 -0 -0.119105
outer loop
vertex 9.149 2.092 0.08
vertex 9.19 1.19 0.08
vertex 9.03 1.805 0.08
endloop
endfacet 
facet normal 0 -0 -0.155595
outer loop
vertex 9.03 1.805 0.08
vertex 9.19 1.19 0.08
vertex 8.841 1.559 0.08
endloop
endfacet 
facet normal 0 -0 -0.156735
outer loop
vertex 8.841 1.559 0.08
vertex 9.19 1.19 0.08
vertex 8.595 1.37 0.08
endloop
endfacet 
facet normal 0 -0 -0.122465
outer loop
vertex 8.595 1.37 0.08
vertex 9.19 1.19 0.08
vertex 8.308 1.251 0.08
endloop
endfacet 
facet normal 0 -0 -0.053458
outer loop
vertex 8.308 1.251 0.08
vertex 9.19 1.19 0.08
vertex 8.01 1.211 0.08
endloop
endfacet 
facet normal -0.00320001 0.02384 0
outer loop
vertex 8.308 1.251 0.08
vertex 8.308 1.251 0
vertex 8.01 1.211 0
endloop
endfacet 
facet normal -0.00320001 0.02384 0
outer loop
vertex 8.308 1.251 0.08
vertex 8.01 1.211 0
vertex 8.01 1.211 0.08
endloop
endfacet 
facet normal 0.00320001 -0.02384 0
outer loop
vertex 8.308 1.251 0
vertex 8.308 1.251 0.08
vertex 8.01 1.211 0.08
endloop
endfacet 
facet normal 0.00320001 -0.02384 0
outer loop
vertex 8.308 1.251 0
vertex 8.01 1.211 0.08
vertex 8.01 1.211 0
endloop
endfacet 
facet normal -0.00952 0.0229601 0
outer loop
vertex 8.595 1.37 0.08
vertex 8.595 1.37 0
vertex 8.308 1.251 0
endloop
endfacet 
facet normal -0.00952 0.0229601 0
outer loop
vertex 8.595 1.37 0.08
vertex 8.308 1.251 0
vertex 8.308 1.251 0.08
endloop
endfacet 
facet normal 0.00952 -0.0229601 0
outer loop
vertex 8.595 1.37 0
vertex 8.595 1.37 0.08
vertex 8.308 1.251 0.08
endloop
endfacet 
facet normal 0.00952 -0.0229601 0
outer loop
vertex 8.595 1.37 0
vertex 8.308 1.251 0.08
vertex 8.308 1.251 0
endloop
endfacet 
facet normal -0.01512 0.0196799 0
outer loop
vertex 8.841 1.559 0.08
vertex 8.841 1.559 0
vertex 8.595 1.37 0
endloop
endfacet 
facet normal -0.01512 0.0196799 0
outer loop
vertex 8.841 1.559 0.08
vertex 8.595 1.37 0
vertex 8.595 1.37 0.08
endloop
endfacet 
facet normal 0.01512 -0.0196799 0
outer loop
vertex 8.841 1.559 0
vertex 8.841 1.559 0.08
vertex 8.595 1.37 0.08
endloop
endfacet 
facet normal 0.01512 -0.0196799 0
outer loop
vertex 8.841 1.559 0
vertex 8.595 1.37 0.08
vertex 8.595 1.37 0
endloop
endfacet 
facet normal -0.01968 0.01512 0
outer loop
vertex 9.03 1.805 0.08
vertex 9.03 1.805 0
vertex 8.841 1.559 0
endloop
endfacet 
facet normal -0.01968 0.01512 0
outer loop
vertex 9.03 1.805 0.08
vertex 8.841 1.559 0
vertex 8.841 1.559 0.08
endloop
endfacet 
facet normal 0.01968 -0.01512 0
outer loop
vertex 9.03 1.805 0
vertex 9.03 1.805 0.08
vertex 8.841 1.559 0.08
endloop
endfacet 
facet normal 0.01968 -0.01512 0
outer loop
vertex 9.03 1.805 0
vertex 8.841 1.559 0.08
vertex 8.841 1.559 0
endloop
endfacet 
facet normal -0.02296 0.00952003 0
outer loop
vertex 9.149 2.092 0.08
vertex 9.149 2.092 0
vertex 9.03 1.805 0
endloop
endfacet 
facet normal -0.02296 0.00952003 0
outer loop
vertex 9.149 2.092 0.08
vertex 9.03 1.805 0
vertex 9.03 1.805 0.08
endloop
endfacet 
facet normal 0.02296 -0.00952003 0
outer loop
vertex 9.149 2.092 0
vertex 9.149 2.092 0.08
vertex 9.03 1.805 0.08
endloop
endfacet 
facet normal 0.02296 -0.00952003 0
outer loop
vertex 9.149 2.092 0
vertex 9.03 1.805 0.08
vertex 9.03 1.805 0
endloop
endfacet 
facet normal -0.02464 0.00327995 0
outer loop
vertex 9.19 2.4 0.08
vertex 9.19 2.4 0
vertex 9.149 2.092 0
endloop
endfacet 
facet normal -0.02464 0.00327995 0
outer loop
vertex 9.19 2.4 0.08
vertex 9.149 2.092 0
vertex 9.149 2.092 0.08
endloop
endfacet 
facet normal 0.02464 -0.00327995 0
outer loop
vertex 9.19 2.4 0
vertex 9.19 2.4 0.08
vertex 9.149 2.092 0.08
endloop
endfacet 
facet normal 0.02464 -0.00327995 0
outer loop
vertex 9.19 2.4 0
vertex 9.149 2.092 0.08
vertex 9.149 2.092 0
endloop
endfacet 
facet normal 0 0 0.0600014
outer loop
vertex 9.2 6 0.08
vertex 9.19 1.19 0.08
vertex 9.2 0 0.08
endloop
endfacet 
facet normal 0 0 -0.0600014
outer loop
vertex 9.2 0 0.08
vertex 9.19 1.19 0.08
vertex 9.2 6 0.08
endloop
endfacet 
facet normal -0 0 0.0118003
outer loop
vertex 9.19 0.01 0.08
vertex 9.2 0 0.08
vertex 9.19 1.19 0.08
endloop
endfacet 
facet normal -0 -0 -0.012
outer loop
vertex 9.19 0.01 0.08
vertex 9.2 0 0.08
vertex 7.99 0.01 0.08
endloop
endfacet 
facet normal 0 0 -0.0118003
outer loop
vertex 9.19 1.19 0.08
vertex 9.2 0 0.08
vertex 9.19 0.01 0.08
endloop
endfacet 
facet normal -0.0944 0 0
outer loop
vertex 9.19 0.01 0
vertex 9.19 0.01 0.08
vertex 9.19 1.19 0.08
endloop
endfacet 
facet normal -0.0944 0 0
outer loop
vertex 9.19 0.01 0
vertex 9.19 1.19 0.08
vertex 9.19 1.19 0
endloop
endfacet 
facet normal 0.0944 0 0
outer loop
vertex 9.19 0.01 0.08
vertex 9.19 0.01 0
vertex 9.19 1.19 0
endloop
endfacet 
facet normal 0.0944 -0 0
outer loop
vertex 9.19 0.01 0.08
vertex 9.19 1.19 0
vertex 9.19 1.19 0.08
endloop
endfacet 
facet normal 0 -0.000800018 0
outer loop
vertex 7.99 0.01 0.08
vertex 7.99 0.01 0
vertex 8 0.01 0
endloop
endfacet 
facet normal 0 -0.0952 0
outer loop
vertex 7.99 0.01 0.08
vertex 8 0.01 0
vertex 9.19 0.01 0
endloop
endfacet 
facet normal 0 -0.096 0
outer loop
vertex 7.99 0.01 0.08
vertex 9.19 0.01 0
vertex 9.19 0.01 0.08
endloop
endfacet 
facet normal 0 0 0
outer loop
vertex 5.3 0.011 0
vertex 2.7 0.011 0
vertex -0.01 0.011 0
endloop
endfacet 
facet normal 0 0 0.00531
outer loop
vertex 7.99 0.01 0
vertex 5.3 0.011 0
vertex -0.01 0.011 0
endloop
endfacet 
facet normal 8e-005 0.64 0
outer loop
vertex 7.99 0.01 0
vertex -0.01 0.011 0
vertex -0.01 0.011 0.08
endloop
endfacet 
facet normal 8e-005 0.64 -0
outer loop
vertex 7.99 0.01 0
vertex -0.01 0.011 0.08
vertex 7.99 0.01 0.08
endloop
endfacet 
facet normal 0 0 -0.0026
outer loop
vertex 2.7 0.011 0
vertex 5.3 0.011 0
vertex 7.99 0.01 0
endloop
endfacet 
facet normal -8e-005 -0.4232 0
outer loop
vertex 2.7 0.011 0
vertex 7.99 0.01 0
vertex 7.99 0.01 0.08
endloop
endfacet 
facet normal -8e-005 -0.64 -0.00271
outer loop
vertex 2.7 0.011 0
vertex 7.99 0.01 0.08
vertex -0.01 0.011 0.08
endloop
endfacet 
facet normal 0 -0.2168 0
outer loop
vertex 2.7 0.011 0
vertex -0.01 0.011 0.08
vertex -0.01 0.011 0
endloop
endfacet 
facet normal -0 -0 -0.07879
outer loop
vertex 7.99 0.01 0.08
vertex 9.2 0 0.08
vertex -0.01 0.011 0.08
endloop
endfacet 
facet normal 0 0 -0.1144
outer loop
vertex 9.2 0 0.08
vertex -1.2 0 0.08
vertex -0.01 0.011 0.08
endloop
endfacet 
facet normal 0 -1.872 0
outer loop
vertex -1.2 0 0.08
vertex -1.2 0 -0.1
vertex 9.2 0 -0.1
endloop
endfacet 
facet normal 0 -1.872 0
outer loop
vertex -1.2 0 0.08
vertex 9.2 0 -0.1
vertex 9.2 0 0.08
endloop
endfacet 
facet normal 0 1.872 0
outer loop
vertex -1.2 0 -0.1
vertex -1.2 0 0.08
vertex 9.2 0 0.08
endloop
endfacet 
facet normal 0 1.872 0
outer loop
vertex -1.2 0 -0.1
vertex 9.2 0 0.08
vertex 9.2 0 -0.1
endloop
endfacet 
facet normal 1.08 0 0
outer loop
vertex 9.2 6 0.08
vertex 9.2 0 0.08
vertex 9.2 0 -0.1
endloop
endfacet 
facet normal 1.08 0 0
outer loop
vertex 9.2 6 0.08
vertex 9.2 0 -0.1
vertex 9.2 6 -0.1
endloop
endfacet 
facet normal -1.08 0 0
outer loop
vertex 9.2 0 0.08
vertex 9.2 6 0.08
vertex 9.2 6 -0.1
endloop
endfacet 
facet normal -1.08 0 0
outer loop
vertex 9.2 0 0.08
vertex 9.2 6 -0.1
vertex 9.2 0 -0.1
endloop
endfacet 
facet normal -0 1.872 0
outer loop
vertex -1.2 6 0.08
vertex 9.2 6 0.08
vertex 9.2 6 -0.1
endloop
endfacet 
facet normal 0 1.872 0
outer loop
vertex -1.2 6 0.08
vertex 9.2 6 -0.1
vertex -1.2 6 -0.1
endloop
endfacet 
facet normal -0 -1.872 0
outer loop
vertex 9.2 6 0.08
vertex -1.2 6 0.08
vertex -1.2 6 -0.1
endloop
endfacet 
facet normal 0 -1.872 -0
outer loop
vertex 9.2 6 0.08
vertex -1.2 6 -0.1
vertex 9.2 6 -0.1
endloop
endfacet 
facet normal -1.08 0 0
outer loop
vertex -1.2 0 0.08
vertex -1.2 6 0.08
vertex -1.2 6 -0.1
endloop
endfacet 
facet normal -1.08 0 0
outer loop
vertex -1.2 0 0.08
vertex -1.2 6 -0.1
vertex -1.2 0 -0.1
endloop
endfacet 
facet normal 1.08 0 0
outer loop
vertex -1.2 6 0.08
vertex -1.2 0 0.08
vertex -1.2 0 -0.1
endloop
endfacet 
facet normal 1.08 0 0
outer loop
vertex -1.2 6 0.08
vertex -1.2 0 -0.1
vertex -1.2 6 -0.1
endloop
endfacet 
facet normal 0 0 -62.4
outer loop
vertex -1.2 6 -0.1
vertex 9.2 6 -0.1
vertex 9.2 0 -0.1
endloop
endfacet 
facet normal 0 0 -62.4
outer loop
vertex -1.2 6 -0.1
vertex 9.2 0 -0.1
vertex -1.2 0 -0.1
endloop
endfacet 
facet normal 0 0 62.4
outer loop
vertex 9.2 6 -0.1
vertex -1.2 6 -0.1
vertex -1.2 0 -0.1
endloop
endfacet 
facet normal 0 0 62.4
outer loop
vertex 9.2 6 -0.1
vertex -1.2 0 -0.1
vertex 9.2 0 -0.1
endloop
endfacet 
facet normal -0 0 -0.050878
outer loop
vertex -0.01 0.011 0.08
vertex -1.2 0 0.08
vertex -0.308 0.051 0.08
endloop
endfacet 
facet normal -0 0 -0.120785
outer loop
vertex -0.308 0.051 0.08
vertex -1.2 0 0.08
vertex -0.595 0.17 0.08
endloop
endfacet 
facet normal -0 0 -0.156165
outer loop
vertex -0.595 0.17 0.08
vertex -1.2 0 0.08
vertex -0.841 0.359 0.08
endloop
endfacet 
facet normal -0 0 -0.156165
outer loop
vertex -0.841 0.359 0.08
vertex -1.2 0 0.08
vertex -1.03 0.605 0.08
endloop
endfacet 
facet normal -0 0 -0.120785
outer loop
vertex -1.03 0.605 0.08
vertex -1.2 0 0.08
vertex -1.149 0.892 0.08
endloop
endfacet 
facet normal -0 0 -0.05228
outer loop
vertex -1.149 0.892 0.08
vertex -1.2 0 0.08
vertex -1.19 1.2 0.08
endloop
endfacet 
facet normal 0.02464 0.00328 0
outer loop
vertex -1.149 0.892 0.08
vertex -1.149 0.892 0
vertex -1.19 1.2 0
endloop
endfacet 
facet normal 0.02464 0.00328 0
outer loop
vertex -1.149 0.892 0.08
vertex -1.19 1.2 0
vertex -1.19 1.2 0.08
endloop
endfacet 
facet normal -0.02464 -0.00328 0
outer loop
vertex -1.149 0.892 0
vertex -1.149 0.892 0.08
vertex -1.19 1.2 0.08
endloop
endfacet 
facet normal -0.02464 -0.00328 0
outer loop
vertex -1.149 0.892 0
vertex -1.19 1.2 0.08
vertex -1.19 1.2 0
endloop
endfacet 
facet normal 0.02464 -0.00328 0
outer loop
vertex -1.19 1.2 0.08
vertex -1.19 1.2 0
vertex -1.149 1.508 0
endloop
endfacet 
facet normal 0.02464 -0.00328 0
outer loop
vertex -1.19 1.2 0.08
vertex -1.149 1.508 0
vertex -1.149 1.508 0.08
endloop
endfacet 
facet normal -0.02464 0.00328 0
outer loop
vertex -1.19 1.2 0
vertex -1.19 1.2 0.08
vertex -1.149 1.508 0.08
endloop
endfacet 
facet normal -0.02464 0.00328 0
outer loop
vertex -1.19 1.2 0
vertex -1.149 1.508 0.08
vertex -1.149 1.508 0
endloop
endfacet 
facet normal 0 0 0.0984
outer loop
vertex -1.149 1.508 0.08
vertex -1.19 3.6 0.08
vertex -1.19 1.2 0.08
endloop
endfacet 
facet normal 0 0 0.073144
outer loop
vertex -1.19 3.6 0.08
vertex -1.149 1.508 0.08
vertex -1.149 3.292 0.08
endloop
endfacet 
facet normal 0 0 -0.0984
outer loop
vertex -1.19 1.2 0.08
vertex -1.19 3.6 0.08
vertex -1.149 1.508 0.08
endloop
endfacet 
facet normal 0 0 0
outer loop
vertex -1.19 1.2 0.08
vertex -1.19 4.81 0.08
vertex -1.19 3.6 0.08
endloop
endfacet 
facet normal 0 0 -0.04961
outer loop
vertex -1.19 3.6 0.08
vertex -1.19 4.81 0.08
vertex -1.149 3.908 0.08
endloop
endfacet 
facet normal 0 0 -0.119105
outer loop
vertex -1.149 3.908 0.08
vertex -1.19 4.81 0.08
vertex -1.03 4.195 0.08
endloop
endfacet 
facet normal 0 0 -0.155595
outer loop
vertex -1.03 4.195 0.08
vertex -1.19 4.81 0.08
vertex -0.841 4.441 0.08
endloop
endfacet 
facet normal 0 0 -0.156735
outer loop
vertex -0.841 4.441 0.08
vertex -1.19 4.81 0.08
vertex -0.595 4.63 0.08
endloop
endfacet 
facet normal 0 0 -0.122465
outer loop
vertex -0.595 4.63 0.08
vertex -1.19 4.81 0.08
vertex -0.308 4.749 0.08
endloop
endfacet 
facet normal 0.00952 -0.02296 0
outer loop
vertex -0.595 4.63 0.08
vertex -0.595 4.63 0
vertex -0.308 4.749 0
endloop
endfacet 
facet normal 0.00952 -0.02296 0
outer loop
vertex -0.595 4.63 0.08
vertex -0.308 4.749 0
vertex -0.308 4.749 0.08
endloop
endfacet 
facet normal -0.00952 0.02296 0
outer loop
vertex -0.595 4.63 0
vertex -0.595 4.63 0.08
vertex -0.308 4.749 0.08
endloop
endfacet 
facet normal -0.00952 0.02296 0
outer loop
vertex -0.595 4.63 0
vertex -0.308 4.749 0.08
vertex -0.308 4.749 0
endloop
endfacet 
facet normal 0.01512 -0.01968 0
outer loop
vertex -0.841 4.441 0.08
vertex -0.841 4.441 0
vertex -0.595 4.63 0
endloop
endfacet 
facet normal 0.01512 -0.01968 0
outer loop
vertex -0.841 4.441 0.08
vertex -0.595 4.63 0
vertex -0.595 4.63 0.08
endloop
endfacet 
facet normal -0.01512 0.01968 0
outer loop
vertex -0.841 4.441 0
vertex -0.841 4.441 0.08
vertex -0.595 4.63 0.08
endloop
endfacet 
facet normal -0.01512 0.01968 0
outer loop
vertex -0.841 4.441 0
vertex -0.595 4.63 0.08
vertex -0.595 4.63 0
endloop
endfacet 
facet normal 0.01968 -0.01512 0
outer loop
vertex -1.03 4.195 0.08
vertex -1.03 4.195 0
vertex -0.841 4.441 0
endloop
endfacet 
facet normal 0.01968 -0.01512 0
outer loop
vertex -1.03 4.195 0.08
vertex -0.841 4.441 0
vertex -0.841 4.441 0.08
endloop
endfacet 
facet normal -0.01968 0.01512 0
outer loop
vertex -1.03 4.195 0
vertex -1.03 4.195 0.08
vertex -0.841 4.441 0.08
endloop
endfacet 
facet normal -0.01968 0.01512 0
outer loop
vertex -1.03 4.195 0
vertex -0.841 4.441 0.08
vertex -0.841 4.441 0
endloop
endfacet 
facet normal 0.02296 -0.00952001 0
outer loop
vertex -1.149 3.908 0.08
vertex -1.149 3.908 0
vertex -1.03 4.195 0
endloop
endfacet 
facet normal 0.02296 -0.00952001 0
outer loop
vertex -1.149 3.908 0.08
vertex -1.03 4.195 0
vertex -1.03 4.195 0.08
endloop
endfacet 
facet normal -0.02296 0.00952001 0
outer loop
vertex -1.149 3.908 0
vertex -1.149 3.908 0.08
vertex -1.03 4.195 0.08
endloop
endfacet 
facet normal -0.02296 0.00952001 0
outer loop
vertex -1.149 3.908 0
vertex -1.03 4.195 0.08
vertex -1.03 4.195 0
endloop
endfacet 
facet normal 0.02464 -0.00328 0
outer loop
vertex -1.19 3.6 0.08
vertex -1.19 3.6 0
vertex -1.149 3.908 0
endloop
endfacet 
facet normal 0.02464 -0.00328 0
outer loop
vertex -1.19 3.6 0.08
vertex -1.149 3.908 0
vertex -1.149 3.908 0.08
endloop
endfacet 
facet normal -0.02464 0.00328 0
outer loop
vertex -1.19 3.6 0
vertex -1.19 3.6 0.08
vertex -1.149 3.908 0.08
endloop
endfacet 
facet normal -0.02464 0.00328 0
outer loop
vertex -1.19 3.6 0
vertex -1.149 3.908 0.08
vertex -1.149 3.908 0
endloop
endfacet 
facet normal 0.02464 0.00328 0
outer loop
vertex -1.149 3.292 0.08
vertex -1.149 3.292 0
vertex -1.19 3.6 0
endloop
endfacet 
facet normal 0.02464 0.00328 0
outer loop
vertex -1.149 3.292 0.08
vertex -1.19 3.6 0
vertex -1.19 3.6 0.08
endloop
endfacet 
facet normal -0.02464 -0.00328 0
outer loop
vertex -1.149 3.292 0
vertex -1.149 3.292 0.08
vertex -1.19 3.6 0.08
endloop
endfacet 
facet normal -0.02464 -0.00328 0
outer loop
vertex -1.149 3.292 0
vertex -1.19 3.6 0.08
vertex -1.19 3.6 0
endloop
endfacet 
facet normal -0 -0 -0.073144
outer loop
vertex -1.149 3.292 0.08
vertex -1.149 1.508 0.08
vertex -1.19 3.6 0.08
endloop
endfacet 
facet normal 0 0 0.212296
outer loop
vertex -1.149 3.292 0.08
vertex -1.149 1.508 0.08
vertex -1.03 1.795 0.08
endloop
endfacet 
facet normal -0 0 -0.212296
outer loop
vertex -1.03 1.795 0.08
vertex -1.149 1.508 0.08
vertex -1.149 3.292 0.08
endloop
endfacet 
facet normal 0.02296 -0.00952001 0
outer loop
vertex -1.149 1.508 0.08
vertex -1.149 1.508 0
vertex -1.03 1.795 0
endloop
endfacet 
facet normal 0.02296 -0.00952001 0
outer loop
vertex -1.149 1.508 0.08
vertex -1.03 1.795 0
vertex -1.03 1.795 0.08
endloop
endfacet 
facet normal -0.02296 0.00952001 0
outer loop
vertex -1.149 1.508 0
vertex -1.149 1.508 0.08
vertex -1.03 1.795 0.08
endloop
endfacet 
facet normal -0.02296 0.00952001 0
outer loop
vertex -1.149 1.508 0
vertex -1.03 1.795 0.08
vertex -1.03 1.795 0
endloop
endfacet 
facet normal 0.01968 -0.01512 0
outer loop
vertex -1.03 1.795 0.08
vertex -1.03 1.795 0
vertex -0.841 2.041 0
endloop
endfacet 
facet normal 0.01968 -0.01512 0
outer loop
vertex -1.03 1.795 0.08
vertex -0.841 2.041 0
vertex -0.841 2.041 0.08
endloop
endfacet 
facet normal -0.01968 0.01512 0
outer loop
vertex -1.03 1.795 0
vertex -1.03 1.795 0.08
vertex -0.841 2.041 0.08
endloop
endfacet 
facet normal -0.01968 0.01512 0
outer loop
vertex -1.03 1.795 0
vertex -0.841 2.041 0.08
vertex -0.841 2.041 0
endloop
endfacet 
facet normal 0 0 0.22869
outer loop
vertex -1.03 3.005 0.08
vertex -1.03 1.795 0.08
vertex -0.841 2.041 0.08
endloop
endfacet 
facet normal 0 0 0.14399
outer loop
vertex -1.149 3.292 0.08
vertex -1.03 1.795 0.08
vertex -1.03 3.005 0.08
endloop
endfacet 
facet normal -0 -0 -0.14399
outer loop
vertex -1.03 3.005 0.08
vertex -1.03 1.795 0.08
vertex -1.149 3.292 0.08
endloop
endfacet 
facet normal -0 0 -0.22869
outer loop
vertex -0.841 2.041 0.08
vertex -1.03 1.795 0.08
vertex -1.03 3.005 0.08
endloop
endfacet 
facet normal 0 0 0.135702
outer loop
vertex -1.03 3.005 0.08
vertex -0.841 2.041 0.08
vertex -0.841 2.759 0.08
endloop
endfacet 
facet normal -0 -0 -0.135702
outer loop
vertex -0.841 2.759 0.08
vertex -0.841 2.041 0.08
vertex -1.03 3.005 0.08
endloop
endfacet 
facet normal 0 0 0.176628
outer loop
vertex -0.841 2.759 0.08
vertex -0.841 2.041 0.08
vertex -0.595 2.23 0.08
endloop
endfacet 
facet normal -0 0 -0.176628
outer loop
vertex -0.595 2.23 0.08
vertex -0.841 2.041 0.08
vertex -0.841 2.759 0.08
endloop
endfacet 
facet normal 0.01512 -0.01968 0
outer loop
vertex -0.841 2.041 0.08
vertex -0.841 2.041 0
vertex -0.595 2.23 0
endloop
endfacet 
facet normal 0.01512 -0.01968 0
outer loop
vertex -0.841 2.041 0.08
vertex -0.595 2.23 0
vertex -0.595 2.23 0.08
endloop
endfacet 
facet normal -0.01512 0.01968 0
outer loop
vertex -0.841 2.041 0
vertex -0.841 2.041 0.08
vertex -0.595 2.23 0.08
endloop
endfacet 
facet normal -0.01512 0.01968 0
outer loop
vertex -0.841 2.041 0
vertex -0.595 2.23 0.08
vertex -0.595 2.23 0
endloop
endfacet 
facet normal 0.00952 -0.02296 0
outer loop
vertex -0.595 2.23 0.08
vertex -0.595 2.23 0
vertex -0.308 2.349 0
endloop
endfacet 
facet normal 0.00952 -0.02296 0
outer loop
vertex -0.595 2.23 0.08
vertex -0.308 2.349 0
vertex -0.308 2.349 0.08
endloop
endfacet 
facet normal -0.00952 0.02296 0
outer loop
vertex -0.595 2.23 0
vertex -0.595 2.23 0.08
vertex -0.308 2.349 0.08
endloop
endfacet 
facet normal -0.00952 0.02296 0
outer loop
vertex -0.595 2.23 0
vertex -0.308 2.349 0.08
vertex -0.308 2.349 0
endloop
endfacet 
facet normal 0 0 0.09758
outer loop
vertex -0.595 2.57 0.08
vertex -0.595 2.23 0.08
vertex -0.308 2.349 0.08
endloop
endfacet 
facet normal 0 0 0.08364
outer loop
vertex -0.841 2.759 0.08
vertex -0.595 2.23 0.08
vertex -0.595 2.57 0.08
endloop
endfacet 
facet normal -0 -0 -0.08364
outer loop
vertex -0.595 2.57 0.08
vertex -0.595 2.23 0.08
vertex -0.841 2.759 0.08
endloop
endfacet 
facet normal -0 0 -0.09758
outer loop
vertex -0.308 2.349 0.08
vertex -0.595 2.23 0.08
vertex -0.595 2.57 0.08
endloop
endfacet 
facet normal 0 0 0.029274
outer loop
vertex -0.595 2.57 0.08
vertex -0.308 2.349 0.08
vertex -0.308 2.451 0.08
endloop
endfacet 
facet normal -0 -0 -0.029274
outer loop
vertex -0.308 2.451 0.08
vertex -0.308 2.349 0.08
vertex -0.595 2.57 0.08
endloop
endfacet 
facet normal 0 0 0.030396
outer loop
vertex -0.308 2.451 0.08
vertex -0.308 2.349 0.08
vertex -0.01 2.389 0.08
endloop
endfacet 
facet normal -0 0 -0.030396
outer loop
vertex -0.01 2.389 0.08
vertex -0.308 2.349 0.08
vertex -0.308 2.451 0.08
endloop
endfacet 
facet normal 0.0032 -0.02384 0
outer loop
vertex -0.308 2.349 0.08
vertex -0.308 2.349 0
vertex -0.01 2.389 0
endloop
endfacet 
facet normal 0.0032 -0.02384 0
outer loop
vertex -0.308 2.349 0.08
vertex -0.01 2.389 0
vertex -0.01 2.389 0.08
endloop
endfacet 
facet normal -0.0032 0.02384 0
outer loop
vertex -0.308 2.349 0
vertex -0.308 2.349 0.08
vertex -0.01 2.389 0.08
endloop
endfacet 
facet normal -0.0032 0.02384 0
outer loop
vertex -0.308 2.349 0
vertex -0.01 2.389 0.08
vertex -0.01 2.389 0
endloop
endfacet 
facet normal 8.00133e-005 -0.6416 0
outer loop
vertex -0.01 2.389 0.08
vertex -0.01 2.389 0
vertex 8.01 2.39 0
endloop
endfacet 
facet normal 8.00133e-005 -0.6416 0
outer loop
vertex -0.01 2.389 0.08
vertex 8.01 2.39 0
vertex 8.01 2.39 0.08
endloop
endfacet 
facet normal -8.00133e-005 0.6416 0
outer loop
vertex -0.01 2.389 0
vertex -0.01 2.389 0.08
vertex 8.01 2.39 0.08
endloop
endfacet 
facet normal -8.00133e-005 0.6416 0
outer loop
vertex -0.01 2.389 0
vertex 8.01 2.39 0.08
vertex 8.01 2.39 0
endloop
endfacet 
facet normal 0 0 0.176441
outer loop
vertex -0.01 2.411 0.08
vertex -0.01 2.389 0.08
vertex 8.01 2.39 0.08
endloop
endfacet 
facet normal 0 0 0.00655602
outer loop
vertex -0.308 2.451 0.08
vertex -0.01 2.389 0.08
vertex -0.01 2.411 0.08
endloop
endfacet 
facet normal -0 -0 -0.00655602
outer loop
vertex -0.01 2.411 0.08
vertex -0.01 2.389 0.08
vertex -0.308 2.451 0.08
endloop
endfacet 
facet normal -0 0 -0.176441
outer loop
vertex 8.01 2.39 0.08
vertex -0.01 2.389 0.08
vertex -0.01 2.411 0.08
endloop
endfacet 
facet normal 0 0 0.1604
outer loop
vertex -0.01 2.411 0.08
vertex 8.01 2.39 0.08
vertex 8.01 2.41 0.08
endloop
endfacet 
facet normal -0 -0 -0.1604
outer loop
vertex 8.01 2.41 0.08
vertex 8.01 2.39 0.08
vertex -0.01 2.411 0.08
endloop
endfacet 
facet normal 0.0016 0 -0
outer loop
vertex 8.01 2.41 0
vertex 8.01 2.41 0.08
vertex 8.01 2.39 0.08
endloop
endfacet 
facet normal 0.0016 0 0
outer loop
vertex 8.01 2.41 0
vertex 8.01 2.39 0.08
vertex 8.01 2.39 0
endloop
endfacet 
facet normal -0.0016 0 -0
outer loop
vertex 8.01 2.41 0.08
vertex 8.01 2.41 0
vertex 8.01 2.39 0
endloop
endfacet 
facet normal -0.0016 -0 0
outer loop
vertex 8.01 2.41 0.08
vertex 8.01 2.39 0
vertex 8.01 2.39 0.08
endloop
endfacet 
facet normal 7.99942e-005 0.2168 0
outer loop
vertex 8.01 2.41 0.08
vertex 8.01 2.41 0
vertex 5.3 2.411 0
endloop
endfacet 
facet normal 0 0.208 0.00259981
outer loop
vertex 8.01 2.41 0.08
vertex 5.3 2.411 0
vertex 2.7 2.411 0
endloop
endfacet 
facet normal 0 0.2168 0.0027098
outer loop
vertex 8.01 2.41 0.08
vertex 2.7 2.411 0
vertex -0.01 2.411 0
endloop
endfacet 
facet normal 7.99942e-005 0.6416 0
outer loop
vertex 8.01 2.41 0.08
vertex -0.01 2.411 0
vertex -0.01 2.411 0.08
endloop
endfacet 
facet normal 0 -0.2168 0
outer loop
vertex -0.01 2.411 0.08
vertex -0.01 2.411 0
vertex 2.7 2.411 0
endloop
endfacet 
facet normal 0 -0.208 0
outer loop
vertex -0.01 2.411 0.08
vertex 2.7 2.411 0
vertex 5.3 2.411 0
endloop
endfacet 
facet normal -7.99942e-005 -0.6416 0
outer loop
vertex 8.01 2.41 0
vertex 8.01 2.41 0.08
vertex -0.01 2.411 0.08
endloop
endfacet 
facet normal -7.99942e-005 -0.2168 -0.00530962
outer loop
vertex 8.01 2.41 0
vertex -0.01 2.411 0.08
vertex 5.3 2.411 0
endloop
endfacet 
facet normal 0.0032 0.02384 0
outer loop
vertex -0.01 2.411 0.08
vertex -0.01 2.411 0
vertex -0.308 2.451 0
endloop
endfacet 
facet normal 0.0032 0.02384 0
outer loop
vertex -0.01 2.411 0.08
vertex -0.308 2.451 0
vertex -0.308 2.451 0.08
endloop
endfacet 
facet normal -0.0032 -0.02384 0
outer loop
vertex -0.01 2.411 0
vertex -0.01 2.411 0.08
vertex -0.308 2.451 0.08
endloop
endfacet 
facet normal -0.0032 -0.02384 0
outer loop
vertex -0.01 2.411 0
vertex -0.308 2.451 0.08
vertex -0.308 2.451 0
endloop
endfacet 
facet normal 0.00952 0.02296 0
outer loop
vertex -0.308 2.451 0.08
vertex -0.308 2.451 0
vertex -0.595 2.57 0
endloop
endfacet 
facet normal 0.00952 0.02296 0
outer loop
vertex -0.308 2.451 0.08
vertex -0.595 2.57 0
vertex -0.595 2.57 0.08
endloop
endfacet 
facet normal -0.00952 -0.02296 0
outer loop
vertex -0.308 2.451 0
vertex -0.308 2.451 0.08
vertex -0.595 2.57 0.08
endloop
endfacet 
facet normal -0.00952 -0.02296 0
outer loop
vertex -0.308 2.451 0
vertex -0.595 2.57 0.08
vertex -0.595 2.57 0
endloop
endfacet 
facet normal 0.01512 0.01968 0
outer loop
vertex -0.595 2.57 0.08
vertex -0.595 2.57 0
vertex -0.841 2.759 0
endloop
endfacet 
facet normal 0.01512 0.01968 0
outer loop
vertex -0.595 2.57 0.08
vertex -0.841 2.759 0
vertex -0.841 2.759 0.08
endloop
endfacet 
facet normal -0.01512 -0.01968 0
outer loop
vertex -0.595 2.57 0
vertex -0.595 2.57 0.08
vertex -0.841 2.759 0.08
endloop
endfacet 
facet normal -0.01512 -0.01968 0
outer loop
vertex -0.595 2.57 0
vertex -0.841 2.759 0.08
vertex -0.841 2.759 0
endloop
endfacet 
facet normal 0.01968 0.01512 0
outer loop
vertex -0.841 2.759 0.08
vertex -0.841 2.759 0
vertex -1.03 3.005 0
endloop
endfacet 
facet normal 0.01968 0.01512 0
outer loop
vertex -0.841 2.759 0.08
vertex -1.03 3.005 0
vertex -1.03 3.005 0.08
endloop
endfacet 
facet normal -0.01968 -0.01512 0
outer loop
vertex -0.841 2.759 0
vertex -0.841 2.759 0.08
vertex -1.03 3.005 0.08
endloop
endfacet 
facet normal -0.01968 -0.01512 0
outer loop
vertex -0.841 2.759 0
vertex -1.03 3.005 0.08
vertex -1.03 3.005 0
endloop
endfacet 
facet normal 0.02296 0.00952001 0
outer loop
vertex -1.03 3.005 0.08
vertex -1.03 3.005 0
vertex -1.149 3.292 0
endloop
endfacet 
facet normal 0.02296 0.00952001 0
outer loop
vertex -1.03 3.005 0.08
vertex -1.149 3.292 0
vertex -1.149 3.292 0.08
endloop
endfacet 
facet normal -0.02296 -0.00952001 0
outer loop
vertex -1.03 3.005 0
vertex -1.03 3.005 0.08
vertex -1.149 3.292 0.08
endloop
endfacet 
facet normal -0.02296 -0.00952001 0
outer loop
vertex -1.03 3.005 0
vertex -1.149 3.292 0.08
vertex -1.149 3.292 0
endloop
endfacet 
facet normal 0 -0.104 -0
outer loop
vertex 3.272 2.411 0.04
vertex 2.7 2.411 0
vertex 5.3 2.411 0
endloop
endfacet 
facet normal 0 -0.02 0
outer loop
vertex 3.272 2.411 0.04
vertex 5.3 2.411 0
vertex 3.772 2.411 0.04
endloop
endfacet 
facet normal 0 0.02 0
outer loop
vertex 2.7 2.411 0
vertex 3.272 2.411 0.04
vertex 3.772 2.411 0.04
endloop
endfacet 
facet normal 0 0.104 0
outer loop
vertex 2.7 2.411 0
vertex 3.772 2.411 0.04
vertex 5.3 2.411 0
endloop
endfacet 
facet normal 0 -0 0.59
outer loop
vertex 3.772 2.411 0.04
vertex 3.772 3.591 0.04
vertex 3.272 3.591 0.04
endloop
endfacet 
facet normal 0 0 0.59
outer loop
vertex 3.772 2.411 0.04
vertex 3.272 3.591 0.04
vertex 3.272 2.411 0.04
endloop
endfacet 
facet normal 0 -0 -0.59
outer loop
vertex 3.772 3.591 0.04
vertex 3.772 2.411 0.04
vertex 3.272 2.411 0.04
endloop
endfacet 
facet normal -0 0 -0.59
outer loop
vertex 3.772 3.591 0.04
vertex 3.272 2.411 0.04
vertex 3.272 3.591 0.04
endloop
endfacet 
facet normal 0 0 0
outer loop
vertex 2.7 3.591 0
vertex 2.7 3.59 0
vertex 2.7 2.411 0
endloop
endfacet 
facet normal -0.0472 0 0.67496
outer loop
vertex 3.272 2.411 0.04
vertex 3.272 3.591 0.04
vertex 2.7 3.591 0
endloop
endfacet 
facet normal -0.0472 0 0.67496
outer loop
vertex 3.272 2.411 0.04
vertex 2.7 3.591 0
vertex 2.7 2.411 0
endloop
endfacet 
facet normal 0.0472 0 -0.67496
outer loop
vertex 3.272 3.591 0.04
vertex 3.272 2.411 0.04
vertex 2.7 2.411 0
endloop
endfacet 
facet normal 0.04716 0 -0.674388
outer loop
vertex 3.272 3.591 0.04
vertex 2.7 2.411 0
vertex 2.7 3.59 0
endloop
endfacet 
facet normal 4.00066e-005 0 -0.000572095
outer loop
vertex 3.272 3.591 0.04
vertex 2.7 3.59 0
vertex 2.7 3.591 0
endloop
endfacet 
facet normal 0 0 -3.0654
outer loop
vertex 2.7 2.411 0
vertex 2.7 3.59 0
vertex 5.3 3.589 0
endloop
endfacet 
facet normal 0 0 -3.0628
outer loop
vertex 2.7 2.411 0
vertex 5.3 3.589 0
vertex 5.3 2.411 0
endloop
endfacet 
facet normal 0 -0 -0.00520024
outer loop
vertex 5.3 3.591 0
vertex 5.3 3.589 0
vertex 2.7 3.59 0
endloop
endfacet 
facet normal -0 0 -0.00260043
outer loop
vertex 5.3 3.591 0
vertex 2.7 3.59 0
vertex 2.7 3.591 0
endloop
endfacet 
facet normal 0 -0 0.00520024
outer loop
vertex 5.3 3.589 0
vertex 5.3 3.591 0
vertex 2.7 3.591 0
endloop
endfacet 
facet normal 0 0 0.00260043
outer loop
vertex 5.3 3.589 0
vertex 2.7 3.591 0
vertex 2.7 3.59 0
endloop
endfacet 
facet normal 0 0 -0.00260043
outer loop
vertex 2.7 3.59 0
vertex 2.7 3.591 0
vertex 5.3 3.591 0
endloop
endfacet 
facet normal 0 0 -0.00520024
outer loop
vertex 2.7 3.59 0
vertex 5.3 3.591 0
vertex 5.3 3.589 0
endloop
endfacet 
facet normal 0 0 0.00260043
outer loop
vertex 2.7 3.591 0
vertex 2.7 3.59 0
vertex 5.3 3.589 0
endloop
endfacet 
facet normal -0 0 0.00520024
outer loop
vertex 2.7 3.591 0
vertex 5.3 3.589 0
vertex 5.3 3.591 0
endloop
endfacet 
facet normal 0 0 3.0654
outer loop
vertex 2.7 3.59 0
vertex 2.7 2.411 0
vertex 5.3 2.411 0
endloop
endfacet 
facet normal 0 0 3.0628
outer loop
vertex 2.7 3.59 0
vertex 5.3 2.411 0
vertex 5.3 3.589 0
endloop
endfacet 
facet normal 8.00037e-005 -0 0.00305614
outer loop
vertex 5.3 3.589 0
vertex 5.3 3.591 0
vertex 3.772 3.591 0.04
endloop
endfacet 
facet normal 0.0472 0 1.80304
outer loop
vertex 5.3 3.589 0
vertex 3.772 3.591 0.04
vertex 3.772 2.411 0.04
endloop
endfacet 
facet normal 0.04712 0 1.79998
outer loop
vertex 5.3 3.589 0
vertex 3.772 2.411 0.04
vertex 5.3 2.411 0
endloop
endfacet 
facet normal 0 0.104 0
outer loop
vertex 3.772 3.591 0.04
vertex 5.3 3.591 0
vertex 2.7 3.591 0
endloop
endfacet 
facet normal 0 0.02 0
outer loop
vertex 3.772 3.591 0.04
vertex 2.7 3.591 0
vertex 3.272 3.591 0.04
endloop
endfacet 
facet normal 0 -0.02 0
outer loop
vertex 5.3 3.591 0
vertex 3.772 3.591 0.04
vertex 3.272 3.591 0.04
endloop
endfacet 
facet normal 0 -0.104 0
outer loop
vertex 5.3 3.591 0
vertex 3.272 3.591 0.04
vertex 2.7 3.591 0
endloop
endfacet 
facet normal 0 0 0
outer loop
vertex 5.3 3.591 0
vertex 5.3 3.589 0
vertex 5.3 2.411 0
endloop
endfacet 
facet normal -0.0472 -0 -1.80304
outer loop
vertex 5.3 3.591 0
vertex 5.3 2.411 0
vertex 3.772 2.411 0.04
endloop
endfacet 
facet normal -0.0472 0 -1.80304
outer loop
vertex 5.3 3.591 0
vertex 3.772 2.411 0.04
vertex 3.772 3.591 0.04
endloop
endfacet 
facet normal 0.02296 0.00952001 0
outer loop
vertex -1.03 0.605 0.08
vertex -1.03 0.605 0
vertex -1.149 0.892 0
endloop
endfacet 
facet normal 0.02296 0.00952001 0
outer loop
vertex -1.03 0.605 0.08
vertex -1.149 0.892 0
vertex -1.149 0.892 0.08
endloop
endfacet 
facet normal -0.02296 -0.00952001 0
outer loop
vertex -1.03 0.605 0
vertex -1.03 0.605 0.08
vertex -1.149 0.892 0.08
endloop
endfacet 
facet normal -0.02296 -0.00952001 0
outer loop
vertex -1.03 0.605 0
vertex -1.149 0.892 0.08
vertex -1.149 0.892 0
endloop
endfacet 
facet normal 0.01968 0.01512 0
outer loop
vertex -0.841 0.359 0.08
vertex -0.841 0.359 0
vertex -1.03 0.605 0
endloop
endfacet 
facet normal 0.01968 0.01512 0
outer loop
vertex -0.841 0.359 0.08
vertex -1.03 0.605 0
vertex -1.03 0.605 0.08
endloop
endfacet 
facet normal -0.01968 -0.01512 0
outer loop
vertex -0.841 0.359 0
vertex -0.841 0.359 0.08
vertex -1.03 0.605 0.08
endloop
endfacet 
facet normal -0.01968 -0.01512 0
outer loop
vertex -0.841 0.359 0
vertex -1.03 0.605 0.08
vertex -1.03 0.605 0
endloop
endfacet 
facet normal 0.01512 0.01968 0
outer loop
vertex -0.595 0.17 0.08
vertex -0.595 0.17 0
vertex -0.841 0.359 0
endloop
endfacet 
facet normal 0.01512 0.01968 0
outer loop
vertex -0.595 0.17 0.08
vertex -0.841 0.359 0
vertex -0.841 0.359 0.08
endloop
endfacet 
facet normal -0.01512 -0.01968 0
outer loop
vertex -0.595 0.17 0
vertex -0.595 0.17 0.08
vertex -0.841 0.359 0.08
endloop
endfacet 
facet normal -0.01512 -0.01968 0
outer loop
vertex -0.595 0.17 0
vertex -0.841 0.359 0.08
vertex -0.841 0.359 0
endloop
endfacet 
facet normal 0.00952 0.02296 0
outer loop
vertex -0.308 0.051 0.08
vertex -0.308 0.051 0
vertex -0.595 0.17 0
endloop
endfacet 
facet normal 0.00952 0.02296 0
outer loop
vertex -0.308 0.051 0.08
vertex -0.595 0.17 0
vertex -0.595 0.17 0.08
endloop
endfacet 
facet normal -0.00952 -0.02296 0
outer loop
vertex -0.308 0.051 0
vertex -0.308 0.051 0.08
vertex -0.595 0.17 0.08
endloop
endfacet 
facet normal -0.00952 -0.02296 0
outer loop
vertex -0.308 0.051 0
vertex -0.595 0.17 0.08
vertex -0.595 0.17 0
endloop
endfacet 
facet normal 0.0032 0.02384 0
outer loop
vertex -0.01 0.011 0.08
vertex -0.01 0.011 0
vertex -0.308 0.051 0
endloop
endfacet 
facet normal 0.0032 0.02384 0
outer loop
vertex -0.01 0.011 0.08
vertex -0.308 0.051 0
vertex -0.308 0.051 0.08
endloop
endfacet 
facet normal -0.0032 -0.02384 0
outer loop
vertex -0.01 0.011 0
vertex -0.01 0.011 0.08
vertex -0.308 0.051 0.08
endloop
endfacet 
facet normal -0.0032 -0.02384 0
outer loop
vertex -0.01 0.011 0
vertex -0.308 0.051 0.08
vertex -0.308 0.051 0
endloop
endfacet 
facet normal 0 -0.104 -0
outer loop
vertex 3.272 0.011 0.04
vertex 2.7 0.011 0
vertex 5.3 0.011 0
endloop
endfacet 
facet normal 0 -0.02 0
outer loop
vertex 3.272 0.011 0.04
vertex 5.3 0.011 0
vertex 3.772 0.011 0.04
endloop
endfacet 
facet normal 0 0.02 0
outer loop
vertex 2.7 0.011 0
vertex 3.272 0.011 0.04
vertex 3.772 0.011 0.04
endloop
endfacet 
facet normal 0 0.104 0
outer loop
vertex 2.7 0.011 0
vertex 3.772 0.011 0.04
vertex 5.3 0.011 0
endloop
endfacet 
facet normal 0 -0 0.59
outer loop
vertex 3.772 0.011 0.04
vertex 3.772 1.191 0.04
vertex 3.272 1.191 0.04
endloop
endfacet 
facet normal 0 0 0.59
outer loop
vertex 3.772 0.011 0.04
vertex 3.272 1.191 0.04
vertex 3.272 0.011 0.04
endloop
endfacet 
facet normal 0 -0 -0.59
outer loop
vertex 3.772 1.191 0.04
vertex 3.772 0.011 0.04
vertex 3.272 0.011 0.04
endloop
endfacet 
facet normal -0 0 -0.59
outer loop
vertex 3.772 1.191 0.04
vertex 3.272 0.011 0.04
vertex 3.272 1.191 0.04
endloop
endfacet 
facet normal -0.0472 0 0.67496
outer loop
vertex 3.272 0.011 0.04
vertex 3.272 1.191 0.04
vertex 2.7 1.191 0
endloop
endfacet 
facet normal -0.0472 0 0.67496
outer loop
vertex 3.272 0.011 0.04
vertex 2.7 1.191 0
vertex 2.7 0.011 0
endloop
endfacet 
facet normal 0.0472 0 -0.67496
outer loop
vertex 3.272 1.191 0.04
vertex 3.272 0.011 0.04
vertex 2.7 0.011 0
endloop
endfacet 
facet normal 0.0472 0 -0.67496
outer loop
vertex 3.272 1.191 0.04
vertex 2.7 0.011 0
vertex 2.7 1.191 0
endloop
endfacet 
facet normal 0 0 -3.068
outer loop
vertex 2.7 0.011 0
vertex 2.7 1.191 0
vertex 5.3 1.191 0
endloop
endfacet 
facet normal 0 0 -3.068
outer loop
vertex 2.7 0.011 0
vertex 5.3 1.191 0
vertex 5.3 0.011 0
endloop
endfacet 
facet normal 0 0 3.068
outer loop
vertex 2.7 1.191 0
vertex 2.7 0.011 0
vertex 5.3 0.011 0
endloop
endfacet 
facet normal -0 0 3.068
outer loop
vertex 2.7 1.191 0
vertex 5.3 0.011 0
vertex 5.3 1.191 0
endloop
endfacet 
facet normal 0.0472 -0 1.80304
outer loop
vertex 5.3 0.011 0
vertex 5.3 1.191 0
vertex 3.772 1.191 0.04
endloop
endfacet 
facet normal 0.0472 0 1.80304
outer loop
vertex 5.3 0.011 0
vertex 3.772 1.191 0.04
vertex 3.772 0.011 0.04
endloop
endfacet 
facet normal 0 0.104 0
outer loop
vertex 3.772 1.191 0.04
vertex 5.3 1.191 0
vertex 2.7 1.191 0
endloop
endfacet 
facet normal 0 0.02 0
outer loop
vertex 3.772 1.191 0.04
vertex 2.7 1.191 0
vertex 3.272 1.191 0.04
endloop
endfacet 
facet normal 0 -0.02 0
outer loop
vertex 5.3 1.191 0
vertex 3.772 1.191 0.04
vertex 3.272 1.191 0.04
endloop
endfacet 
facet normal 0 -0.104 0
outer loop
vertex 5.3 1.191 0
vertex 3.272 1.191 0.04
vertex 2.7 1.191 0
endloop
endfacet 
facet normal -0.0472 -0 -1.80304
outer loop
vertex 5.3 1.191 0
vertex 5.3 0.011 0
vertex 3.772 0.011 0.04
endloop
endfacet 
facet normal -0.0472 0 -1.80304
outer loop
vertex 5.3 1.191 0
vertex 3.772 0.011 0.04
vertex 3.772 1.191 0.04
endloop
endfacet 
facet normal -0.02464 0.00327995 0
outer loop
vertex 9.19 4.8 0.08
vertex 9.19 4.8 0
vertex 9.149 4.492 0
endloop
endfacet 
facet normal -0.02464 0.00327995 0
outer loop
vertex 9.19 4.8 0.08
vertex 9.149 4.492 0
vertex 9.149 4.492 0.08
endloop
endfacet 
facet normal 0.02464 -0.00327995 0
outer loop
vertex 9.19 4.8 0
vertex 9.19 4.8 0.08
vertex 9.149 4.492 0.08
endloop
endfacet 
facet normal 0.02464 -0.00327995 0
outer loop
vertex 9.19 4.8 0
vertex 9.149 4.492 0.08
vertex 9.149 4.492 0
endloop
endfacet 
facet normal -0.02296 0.00952003 0
outer loop
vertex 9.149 4.492 0.08
vertex 9.149 4.492 0
vertex 9.03 4.205 0
endloop
endfacet 
facet normal -0.02296 0.00952003 0
outer loop
vertex 9.149 4.492 0.08
vertex 9.03 4.205 0
vertex 9.03 4.205 0.08
endloop
endfacet 
facet normal 0.02296 -0.00952003 0
outer loop
vertex 9.149 4.492 0
vertex 9.149 4.492 0.08
vertex 9.03 4.205 0.08
endloop
endfacet 
facet normal 0.02296 -0.00952003 0
outer loop
vertex 9.149 4.492 0
vertex 9.03 4.205 0.08
vertex 9.03 4.205 0
endloop
endfacet 
facet normal -0.01968 0.01512 0
outer loop
vertex 9.03 4.205 0.08
vertex 9.03 4.205 0
vertex 8.841 3.959 0
endloop
endfacet 
facet normal -0.01968 0.01512 0
outer loop
vertex 9.03 4.205 0.08
vertex 8.841 3.959 0
vertex 8.841 3.959 0.08
endloop
endfacet 
facet normal 0.01968 -0.01512 0
outer loop
vertex 9.03 4.205 0
vertex 9.03 4.205 0.08
vertex 8.841 3.959 0.08
endloop
endfacet 
facet normal 0.01968 -0.01512 0
outer loop
vertex 9.03 4.205 0
vertex 8.841 3.959 0.08
vertex 8.841 3.959 0
endloop
endfacet 
facet normal -0.01512 0.0196799 0
outer loop
vertex 8.841 3.959 0.08
vertex 8.841 3.959 0
vertex 8.595 3.77 0
endloop
endfacet 
facet normal -0.01512 0.0196799 0
outer loop
vertex 8.841 3.959 0.08
vertex 8.595 3.77 0
vertex 8.595 3.77 0.08
endloop
endfacet 
facet normal 0.01512 -0.0196799 0
outer loop
vertex 8.841 3.959 0
vertex 8.841 3.959 0.08
vertex 8.595 3.77 0.08
endloop
endfacet 
facet normal 0.01512 -0.0196799 0
outer loop
vertex 8.841 3.959 0
vertex 8.595 3.77 0.08
vertex 8.595 3.77 0
endloop
endfacet 
facet normal -0.00952 0.0229601 0
outer loop
vertex 8.595 3.77 0.08
vertex 8.595 3.77 0
vertex 8.308 3.651 0
endloop
endfacet 
facet normal -0.00952 0.0229601 0
outer loop
vertex 8.595 3.77 0.08
vertex 8.308 3.651 0
vertex 8.308 3.651 0.08
endloop
endfacet 
facet normal 0.00952 -0.0229601 0
outer loop
vertex 8.595 3.77 0
vertex 8.595 3.77 0.08
vertex 8.308 3.651 0.08
endloop
endfacet 
facet normal 0.00952 -0.0229601 0
outer loop
vertex 8.595 3.77 0
vertex 8.308 3.651 0.08
vertex 8.308 3.651 0
endloop
endfacet 
facet normal -0.0032 0.02384 0
outer loop
vertex 8.308 3.651 0.08
vertex 8.308 3.651 0
vertex 8.01 3.611 0
endloop
endfacet 
facet normal -0.0032 0.02384 0
outer loop
vertex 8.308 3.651 0.08
vertex 8.01 3.611 0
vertex 8.01 3.611 0.08
endloop
endfacet 
facet normal 0.0032 -0.02384 0
outer loop
vertex 8.308 3.651 0
vertex 8.308 3.651 0.08
vertex 8.01 3.611 0.08
endloop
endfacet 
facet normal 0.0032 -0.02384 0
outer loop
vertex 8.308 3.651 0
vertex 8.01 3.611 0.08
vertex 8.01 3.611 0
endloop
endfacet 
endsolid 
